<?xml version="1.0" encoding="UTF-8" standalone="no"?>
<!-- Created with Inkscape (http://www.inkscape.org/) -->

<svg
   xmlns:osb="http://www.openswatchbook.org/uri/2009/osb"
   xmlns:dc="http://purl.org/dc/elements/1.1/"
   xmlns:cc="http://creativecommons.org/ns#"
   xmlns:rdf="http://www.w3.org/1999/02/22-rdf-syntax-ns#"
   xmlns:svg="http://www.w3.org/2000/svg"
   xmlns="http://www.w3.org/2000/svg"
   xmlns:xlink="http://www.w3.org/1999/xlink"
   xmlns:sodipodi="http://sodipodi.sourceforge.net/DTD/sodipodi-0.dtd"
   xmlns:inkscape="http://www.inkscape.org/namespaces/inkscape"
   width="128"
   height="128"
   id="svg3145"
   version="1.1"
   inkscape:version="0.91 r"
   sodipodi:docname="scenter.svg">
  <defs
     id="defs3147">
    <linearGradient
       id="linearGradient4372"
       inkscape:collect="always">
      <stop
         id="stop4374"
         offset="0"
         style="stop-color:#1863ee;stop-opacity:1" />
      <stop
         style="stop-color:#18a4ee;stop-opacity:1"
         offset="0.5"
         id="stop4376" />
      <stop
         id="stop4378"
         offset="1"
         style="stop-color:#15c4fc;stop-opacity:1" />
    </linearGradient>
    <linearGradient
       inkscape:collect="always"
       id="linearGradient4408">
      <stop
         style="stop-color:#000000;stop-opacity:1"
         offset="0"
         id="stop4410" />
      <stop
         id="stop4416"
         offset="0.5"
         style="stop-color:#000000;stop-opacity:0.71069181" />
      <stop
         style="stop-color:#000000;stop-opacity:0.33333334"
         offset="1"
         id="stop4412" />
    </linearGradient>
    <linearGradient
       id="linearGradient4182"
       osb:paint="solid">
      <stop
         style="stop-color:#000000;stop-opacity:1;"
         offset="0"
         id="stop4184" />
    </linearGradient>
    <linearGradient
       inkscape:collect="always"
       id="linearGradient4164">
      <stop
         style="stop-color:#d34e04;stop-opacity:1"
         offset="0"
         id="stop4166" />
      <stop
         id="stop4172"
         offset="0.5"
         style="stop-color:#ee7e0e;stop-opacity:1" />
      <stop
         style="stop-color:#ffc424;stop-opacity:1"
         offset="1"
         id="stop4168" />
    </linearGradient>
    <linearGradient
       id="linearGradient3779">
      <stop
         style="stop-color:#ffffff;stop-opacity:1"
         offset="0"
         id="stop3781" />
      <stop
         style="stop-color:#cacaca;stop-opacity:1"
         offset="1"
         id="stop3783" />
    </linearGradient>
    <linearGradient
       id="linearGradient4433">
      <stop
         style="stop-color:#5c6470;stop-opacity:1;"
         offset="0"
         id="stop4435" />
      <stop
         style="stop-color:#abc2c2;stop-opacity:1;"
         offset="1"
         id="stop4437" />
    </linearGradient>
    <linearGradient
       inkscape:collect="always"
       xlink:href="#linearGradient4372"
       id="linearGradient4170"
       x1="47.512257"
       y1="84.655106"
       x2="47.512257"
       y2="10.487744"
       gradientUnits="userSpaceOnUse" />
    <linearGradient
       inkscape:collect="always"
       xlink:href="#linearGradient4164"
       id="linearGradient4310"
       gradientUnits="userSpaceOnUse"
       x1="47.512257"
       y1="84.655106"
       x2="47.512257"
       y2="10.487744" />
    <linearGradient
       inkscape:collect="always"
       xlink:href="#linearGradient4408"
       id="linearGradient4414"
       x1="33.233509"
       y1="85.375641"
       x2="33.674099"
       y2="9.8162336"
       gradientUnits="userSpaceOnUse" />
    <linearGradient
       gradientTransform="matrix(1.0771471,0,0,1.0715949,-3.5751233,-5.9452749)"
       inkscape:collect="always"
       xlink:href="#linearGradient3779"
       id="linearGradient4162"
       x1="48.411732"
       y1="11.413816"
       x2="47.881229"
       y2="87.935265"
       gradientUnits="userSpaceOnUse" />
    <linearGradient
       id="SVGID_1_"
       gradientUnits="userSpaceOnUse"
       x1="96.123901"
       y1="59.410801"
       x2="96.123901"
       y2="126.7446">
      <stop
         offset="0"
         style="stop-color:#FEFEFE"
         id="stop37" />
      <stop
         offset="1"
         style="stop-color:#D6D6D6"
         id="stop39" />
    </linearGradient>
    <linearGradient
       id="SVGID_2_"
       gradientUnits="userSpaceOnUse"
       x1="125.5121"
       y1="59.410801"
       x2="125.5121"
       y2="126.7446">
      <stop
         offset="0"
         style="stop-color:#FEFEFE"
         id="stop44" />
      <stop
         offset="1"
         style="stop-color:#D6D6D6"
         id="stop46" />
    </linearGradient>
    <linearGradient
       id="SVGID_3_"
       gradientUnits="userSpaceOnUse"
       x1="66.612198"
       y1="59.410801"
       x2="66.612198"
       y2="126.7446">
      <stop
         offset="0"
         style="stop-color:#FEFEFE"
         id="stop51" />
      <stop
         offset="1"
         style="stop-color:#D6D6D6"
         id="stop53" />
    </linearGradient>
    <linearGradient
       id="SVGID_4_"
       gradientUnits="userSpaceOnUse"
       x1="78.620003"
       y1="59.410801"
       x2="78.620003"
       y2="126.7446">
      <stop
         offset="0"
         style="stop-color:#FEFEFE"
         id="stop63" />
      <stop
         offset="1"
         style="stop-color:#D6D6D6"
         id="stop65" />
    </linearGradient>
    <linearGradient
       id="SVGID_5_"
       gradientUnits="userSpaceOnUse"
       x1="89.7286"
       y1="59.410801"
       x2="89.7286"
       y2="126.7446">
      <stop
         offset="0"
         style="stop-color:#FEFEFE"
         id="stop70" />
      <stop
         offset="1"
         style="stop-color:#D6D6D6"
         id="stop72" />
    </linearGradient>
    <linearGradient
       id="SVGID_6_"
       gradientUnits="userSpaceOnUse"
       x1="67.261299"
       y1="59.410801"
       x2="67.261299"
       y2="126.7446">
      <stop
         offset="0"
         style="stop-color:#FEFEFE"
         id="stop77" />
      <stop
         offset="1"
         style="stop-color:#D6D6D6"
         id="stop79" />
    </linearGradient>
    <linearGradient
       id="SVGID_7_"
       gradientUnits="userSpaceOnUse"
       x1="104.5203"
       y1="59.410801"
       x2="104.5203"
       y2="126.7446">
      <stop
         offset="0"
         style="stop-color:#FEFEFE"
         id="stop105" />
      <stop
         offset="1"
         style="stop-color:#D6D6D6"
         id="stop107" />
    </linearGradient>
    <linearGradient
       id="SVGID_8_"
       gradientUnits="userSpaceOnUse"
       x1="117.8131"
       y1="59.410801"
       x2="117.8131"
       y2="126.7446">
      <stop
         offset="0"
         style="stop-color:#FEFEFE"
         id="stop112" />
      <stop
         offset="1"
         style="stop-color:#D6D6D6"
         id="stop114" />
    </linearGradient>
    <linearGradient
       id="SVGID_9_"
       gradientUnits="userSpaceOnUse"
       x1="123.0988"
       y1="59.410801"
       x2="123.0988"
       y2="126.7446">
      <stop
         offset="0"
         style="stop-color:#FEFEFE"
         id="stop119" />
      <stop
         offset="1"
         style="stop-color:#D6D6D6"
         id="stop121" />
    </linearGradient>
  </defs>
  <sodipodi:namedview
     id="base"
     pagecolor="#ffffff"
     bordercolor="#666666"
     borderopacity="1.0"
     inkscape:pageopacity="0.0"
     inkscape:pageshadow="2"
     inkscape:zoom="2.4748737"
     inkscape:cx="-21.409388"
     inkscape:cy="74.697116"
     inkscape:current-layer="g3389"
     showgrid="false"
     inkscape:grid-bbox="true"
     inkscape:document-units="px"
     inkscape:snap-global="true"
     showguides="true"
     inkscape:window-width="1301"
     inkscape:window-height="744"
     inkscape:window-x="65"
     inkscape:window-y="24"
     inkscape:window-maximized="1">
    <inkscape:grid
       type="xygrid"
       id="grid4441" />
  </sodipodi:namedview>
  <metadata
     id="metadata3150">
    <rdf:RDF>
      <cc:Work
         rdf:about="">
        <dc:format>image/svg+xml</dc:format>
        <dc:type
           rdf:resource="http://purl.org/dc/dcmitype/StillImage" />
        <dc:title />
      </cc:Work>
    </rdf:RDF>
  </metadata>
  <g
     inkscape:groupmode="layer"
     id="layer7"
     inkscape:label="SOMBRA-503"
     style="display:inline" />
  <g
     inkscape:groupmode="layer"
     id="layer6"
     inkscape:label="SOMBRA-502"
     style="display:inline" />
  <g
     inkscape:groupmode="layer"
     id="layer5"
     inkscape:label="SOMBRA-501"
     style="display:inline" />
  <g
     inkscape:groupmode="layer"
     id="layer4"
     inkscape:label="SOMBRA-102"
     style="display:inline" />
  <g
     inkscape:groupmode="layer"
     id="layer3"
     inkscape:label="SOMBRA-101"
     style="display:inline" />
  <g
     inkscape:groupmode="layer"
     id="layer2"
     inkscape:label="SOMBRA-BASE"
     style="display:inline" />
  <g
     inkscape:groupmode="layer"
     id="layer10"
     inkscape:label="BASE2"
     style="display:inline" />
  <g
     id="layer1"
     inkscape:label="BASE"
     inkscape:groupmode="layer"
     style="display:inline" />
  <g
     inkscape:groupmode="layer"
     id="layer9"
     inkscape:label="BORDER"
     style="display:inline">
    <path
       style="display:inline;opacity:1;fill:url(#linearGradient4310);fill-opacity:1;stroke:none;stroke-width:1;stroke-linecap:butt;stroke-linejoin:miter;stroke-miterlimit:4;stroke-dasharray:none;stroke-dashoffset:0;stroke-opacity:0.29559751"
       id="path4431-0"
       r="38"
       cy="48"
       cx="48"
       d=""
       inkscape:connector-curvature="0" />
  </g>
  <g
     inkscape:groupmode="layer"
     id="layer8"
     inkscape:label="SIMBOL"
     style="display:inline">
    <g
       id="g3389"
       transform="matrix(1.3872832,0,0,1.3872832,-2.5895936,-2.9364144)">
      <circle
         r="43.25"
         cy="48.25"
         cx="48"
         id="path4505"
         style="display:inline;opacity:0.05;fill:#000000;fill-opacity:1;stroke-width:1.11300004;stroke-miterlimit:4;stroke-dasharray:none" />
      <circle
         r="43"
         cy="48.5"
         cx="48.000004"
         id="path4502"
         style="display:inline;opacity:0.05;fill:#000000;fill-opacity:1;stroke-width:1.11300004;stroke-miterlimit:4;stroke-dasharray:none" />
      <circle
         r="42.75"
         cy="48.75"
         cx="47.999996"
         id="path4499"
         style="display:inline;opacity:0.05;fill:#000000;fill-opacity:1;stroke-width:1.11300004;stroke-miterlimit:4;stroke-dasharray:none" />
      <circle
         r="42.5"
         cy="48.5"
         cx="48"
         id="path4496"
         style="display:inline;opacity:0.1;fill:#000000;fill-opacity:1;stroke-width:1.11300004;stroke-miterlimit:4;stroke-dasharray:none" />
      <circle
         r="42.25"
         cy="48.25"
         cx="48"
         id="path4491"
         style="display:inline;opacity:0.1;fill:#000000;fill-opacity:1;stroke-width:1.11300004;stroke-miterlimit:4;stroke-dasharray:none" />
      <circle
         id="path3153"
         style="display:inline;fill:url(#linearGradient4162);fill-opacity:1;stroke-width:1.11300004;stroke-miterlimit:4;stroke-dasharray:none"
         cx="48"
         cy="48"
         r="42" />
      <circle
         cx="48"
         cy="48"
         r="38"
         id="path4431"
         style="display:inline;opacity:1;fill:url(#linearGradient4170);fill-opacity:1;stroke:none;stroke-width:1;stroke-linecap:butt;stroke-linejoin:miter;stroke-miterlimit:4;stroke-dasharray:none;stroke-dashoffset:0;stroke-opacity:0.29559751" />
      <circle
         cx="48"
         cy="48"
         r="37.506493"
         id="path4431-1"
         style="display:inline;opacity:1;fill:none;fill-opacity:1;stroke:url(#linearGradient4414);stroke-width:0.98701298;stroke-linecap:butt;stroke-linejoin:miter;stroke-miterlimit:4;stroke-dasharray:none;stroke-dashoffset:0;stroke-opacity:0.12578616" />
      <g
         transform="matrix(0.72083335,0,0,0.72083335,-21.200002,-20.773038)"
         id="Glyph">
        <g
           id="Base">
          <linearGradient
             id="linearGradient4576"
             gradientUnits="userSpaceOnUse"
             x1="96.123901"
             y1="59.410801"
             x2="96.123901"
             y2="126.7446">
            <stop
               offset="0"
               style="stop-color:#FEFEFE"
               id="stop4578" />
            <stop
               offset="1"
               style="stop-color:#D6D6D6"
               id="stop4580" />
          </linearGradient>
          <path
             style="fill:url(#SVGID_1_)"
             inkscape:connector-curvature="0"
             d="m 82.367,99.717 c 8.86,0 18.662,0 27.514,0 l -4.902,-8.49 c -5.821,0 -11.887,0 -17.711,0 l -4.901,8.49 z"
             id="path41" />
          <linearGradient
             id="linearGradient4583"
             gradientUnits="userSpaceOnUse"
             x1="125.5121"
             y1="59.410801"
             x2="125.5121"
             y2="126.7446">
            <stop
               offset="0"
               style="stop-color:#FEFEFE"
               id="stop4585" />
            <stop
               offset="1"
               style="stop-color:#D6D6D6"
               id="stop4587" />
          </linearGradient>
          <path
             style="fill:url(#SVGID_2_)"
             inkscape:connector-curvature="0"
             d="m 117.8,91.227 4.902,8.49 c 4.301,0 7.938,0 10.523,0 l 0,-8.49 c -3.52,0 -8.983,0 -15.425,0 z"
             id="path48" />
          <linearGradient
             id="linearGradient4590"
             gradientUnits="userSpaceOnUse"
             x1="66.612198"
             y1="59.410801"
             x2="66.612198"
             y2="126.7446">
            <stop
               offset="0"
               style="stop-color:#FEFEFE"
               id="stop4592" />
            <stop
               offset="1"
               style="stop-color:#D6D6D6"
               id="stop4594" />
          </linearGradient>
          <path
             style="fill:url(#SVGID_3_)"
             inkscape:connector-curvature="0"
             d="m 74.449,91.227 c -6.575,0 -12.14,0 -15.673,0 0,0 0,0.893 0,2.099 0,2.514 0,6.391 0,6.391 2.616,0 6.345,0 10.772,0 l 4.901,-8.49 z"
             id="path55" />
        </g>
        <g
           id="Pencil">
          <g
             id="g58">
            <g
               id="g60">
              <linearGradient
                 id="linearGradient4600"
                 gradientUnits="userSpaceOnUse"
                 x1="78.620003"
                 y1="59.410801"
                 x2="78.620003"
                 y2="126.7446">
                <stop
                   offset="0"
                   style="stop-color:#FEFEFE"
                   id="stop4602" />
                <stop
                   offset="1"
                   style="stop-color:#D6D6D6"
                   id="stop4604" />
              </linearGradient>
              <polygon
                 style="fill:url(#SVGID_4_)"
                 points="66.339,107.885 73.692,112.13 90.901,82.323 83.548,78.078 "
                 id="polygon67" />
              <linearGradient
                 id="linearGradient4607"
                 gradientUnits="userSpaceOnUse"
                 x1="89.7286"
                 y1="59.410801"
                 x2="89.7286"
                 y2="126.7446">
                <stop
                   offset="0"
                   style="stop-color:#FEFEFE"
                   id="stop4609" />
                <stop
                   offset="1"
                   style="stop-color:#D6D6D6"
                   id="stop4611" />
              </linearGradient>
              <path
                 style="fill:url(#SVGID_5_)"
                 inkscape:connector-curvature="0"
                 d="M 93.88,72.966 90.163,70.82 c -1.004,-0.58 -2.287,-0.236 -2.867,0.768 l -2.768,4.794 7.352,4.245 2.768,-4.794 c 0.579,-1.004 0.236,-2.288 -0.768,-2.867 z"
                 id="path74" />
            </g>
            <linearGradient
               id="linearGradient4614"
               gradientUnits="userSpaceOnUse"
               x1="67.261299"
               y1="59.410801"
               x2="67.261299"
               y2="126.7446">
              <stop
                 offset="0"
                 style="stop-color:#FEFEFE"
                 id="stop4616" />
              <stop
                 offset="1"
                 style="stop-color:#D6D6D6"
                 id="stop4618" />
            </linearGradient>
            <polygon
               style="fill:url(#SVGID_6_)"
               points="65.36,109.581 61.81,123.938 72.712,113.826 "
               id="polygon81" />
          </g>
          <g
             id="g83">
            <g
               id="g85">
              <g
                 id="g87">
                <path
                   style="fill:#ffffff"
                   inkscape:connector-curvature="0"
                   d="m 73.752,112.353 -7.635,-4.408 17.372,-30.089 7.635,4.408 -17.372,30.089 z m -7.19,-4.528 7.07,4.082 17.045,-29.523 -7.07,-4.082 -17.045,29.523 z"
                   id="path89" />
              </g>
              <g
                 id="g91">
                <path
                   style="fill:#ffffff"
                   inkscape:connector-curvature="0"
                   d="m 91.94,80.85 -7.635,-4.408 2.849,-4.935 c 0.403,-0.698 1.154,-1.131 1.961,-1.131 0.395,0 0.785,0.105 1.129,0.303 l 3.717,2.146 c 1.08,0.623 1.452,2.01 0.828,3.09 L 91.94,80.85 Z m -7.189,-4.528 7.07,4.082 2.686,-4.652 c 0.533,-0.924 0.216,-2.111 -0.709,-2.644 l -3.717,-2.146 c -0.294,-0.17 -0.628,-0.259 -0.966,-0.259 -0.691,0 -1.334,0.371 -1.679,0.968 l -2.685,4.651 z"
                   id="path93" />
              </g>
            </g>
            <g
               id="g95">
              <path
                 style="fill:#ffffff"
                 inkscape:connector-curvature="0"
                 d="m 61.521,124.429 3.733,-15.098 7.732,4.464 -11.465,10.634 z m 3.946,-14.597 -3.367,13.615 10.339,-9.59 -6.972,-4.025 z"
                 id="path97" />
            </g>
          </g>
        </g>
        <g
           id="Brush">
          <g
             id="g100">
            <g
               id="g102">
              <linearGradient
                 id="linearGradient4632"
                 gradientUnits="userSpaceOnUse"
                 x1="104.5203"
                 y1="59.410801"
                 x2="104.5203"
                 y2="126.7446">
                <stop
                   offset="0"
                   style="stop-color:#FEFEFE"
                   id="stop4634" />
                <stop
                   offset="1"
                   style="stop-color:#D6D6D6"
                   id="stop4636" />
              </linearGradient>
              <path
                 style="fill:url(#SVGID_7_)"
                 inkscape:connector-curvature="0"
                 d="M 118.243,94.607 98.432,60.294 c -0.58,-1.004 -1.863,-1.348 -2.867,-0.768 l -3.717,2.146 c -1.004,0.58 -1.348,1.863 -0.768,2.867 l 19.811,34.313 7.352,-4.245 z"
                 id="path109" />
              <linearGradient
                 id="linearGradient4639"
                 gradientUnits="userSpaceOnUse"
                 x1="117.8131"
                 y1="59.410801"
                 x2="117.8131"
                 y2="126.7446">
                <stop
                   offset="0"
                   style="stop-color:#FEFEFE"
                   id="stop4641" />
                <stop
                   offset="1"
                   style="stop-color:#D6D6D6"
                   id="stop4643" />
              </linearGradient>
              <polygon
                 style="fill:url(#SVGID_8_)"
                 points="116.077,107.836 116.077,107.836 123.43,103.591 119.549,96.87 112.197,101.115 "
                 id="polygon116" />
            </g>
            <linearGradient
               id="linearGradient4646"
               gradientUnits="userSpaceOnUse"
               x1="123.0988"
               y1="59.410801"
               x2="123.0988"
               y2="126.7446">
              <stop
                 offset="0"
                 style="stop-color:#FEFEFE"
                 id="stop4648" />
              <stop
                 offset="1"
                 style="stop-color:#D6D6D6"
                 id="stop4650" />
            </linearGradient>
            <path
               style="fill:url(#SVGID_9_)"
               inkscape:connector-curvature="0"
               d="m 119.646,115.601 c 1.776,1.227 3.542,2.381 4.864,3.381 1.008,1.043 1.825,2.206 1.939,3.816 0.021,0.209 0.153,0.98 0.551,0.571 1.947,-1.751 2.444,-5.547 1.653,-11.156 -0.408,-2.946 -3.765,-6.044 -4.133,-6.392 -0.224,-0.248 -0.888,-0.227 -1.286,0 l -5.77,3.331 c -0.14,0.095 -0.344,0.663 -0.261,1.319 0.503,2.476 1.27,4.3 2.443,5.13"
               id="path123" />
          </g>
          <g
             id="g125">
            <g
               id="g127">
              <g
                 id="g129">
                <path
                   style="fill:#ffffff"
                   inkscape:connector-curvature="0"
                   d="M 110.83,99.075 110.748,98.933 90.938,64.62 c -0.302,-0.523 -0.382,-1.133 -0.226,-1.717 0.156,-0.584 0.531,-1.071 1.054,-1.373 l 3.717,-2.146 c 0.344,-0.199 0.734,-0.304 1.129,-0.304 0.807,0 1.558,0.433 1.961,1.131 l 19.893,34.455 -7.636,4.409 z M 96.612,59.407 c -0.338,0 -0.672,0.09 -0.966,0.26 l -3.717,2.146 c -0.448,0.259 -0.768,0.676 -0.902,1.175 -0.134,0.499 -0.065,1.021 0.193,1.469 l 19.73,34.172 7.07,-4.081 -19.73,-34.173 c -0.344,-0.597 -0.988,-0.968 -1.678,-0.968 z"
                   id="path131" />
              </g>
              <g
                 id="g133">
                <path
                   style="fill:#ffffff"
                   inkscape:connector-curvature="0"
                   d="m 116.017,108.059 -4.044,-7.005 7.636,-4.408 4.044,7.005 -7.636,4.408 z m -3.597,-6.885 3.717,6.439 7.07,-4.082 -3.717,-6.439 -7.07,4.082 z"
                   id="path135" />
              </g>
            </g>
            <g
               id="g137">
              <path
                 style="fill:#ffffff"
                 inkscape:connector-curvature="0"
                 d="m 126.788,123.651 0,0 c -0.388,0 -0.482,-0.64 -0.502,-0.835 -0.118,-1.673 -1.024,-2.819 -1.893,-3.719 -0.892,-0.673 -2.019,-1.438 -3.212,-2.248 -0.533,-0.362 -1.08,-0.733 -1.627,-1.112 -1.139,-0.806 -1.96,-2.517 -2.51,-5.231 -0.085,-0.672 0.105,-1.335 0.33,-1.487 l 5.779,-3.337 c 0.219,-0.126 0.52,-0.2 0.805,-0.2 0.305,0 0.547,0.082 0.683,0.232 l 0.023,0.021 c 1.126,1.061 3.784,3.813 4.151,6.458 0.811,5.751 0.237,9.553 -1.706,11.3 -0.1,0.101 -0.21,0.158 -0.321,0.158 z m -2.829,-17.844 c -0.231,0 -0.471,0.059 -0.643,0.157 l -5.769,3.331 c -0.06,0.052 -0.26,0.533 -0.18,1.157 0.531,2.617 1.308,4.262 2.374,5.017 0.545,0.377 1.091,0.747 1.624,1.109 1.196,0.813 2.327,1.58 3.244,2.275 0.93,0.959 1.878,2.162 2.003,3.935 0.027,0.266 0.119,0.511 0.178,0.537 0.006,-0.001 0.037,-0.01 0.094,-0.068 1.864,-1.677 2.403,-5.382 1.608,-11.019 -0.353,-2.543 -2.951,-5.229 -4.051,-6.265 l -0.033,-0.031 c -0.078,-0.087 -0.247,-0.135 -0.449,-0.135 z"
                 id="path139" />
            </g>
          </g>
        </g>
        <path
           style="opacity:0.2;fill:#202020"
           inkscape:connector-curvature="0"
           d="m 82.744,99.064 -0.377,0.653 c 8.86,0 18.662,0 27.514,0 l -0.377,-0.653 c -8.629,0 -18.123,0 -26.76,0 z"
           id="path141" />
        <path
           style="opacity:0.2;fill:#202020"
           inkscape:connector-curvature="0"
           d="m 122.701,99.717 c 4.301,0 7.938,0 10.523,0 l 0,-0.653 c -2.585,0 -6.62,0 -10.921,0 l 0.398,0.653 z"
           id="path143" />
        <path
           style="opacity:0.2;fill:#202020"
           inkscape:connector-curvature="0"
           d="m 69.934,99.064 c -4.427,0 -8.543,0 -11.159,0 0,0.407 0,0.653 0,0.653 2.616,0 6.345,0 10.772,0 l 0.387,-0.653 z"
           id="path145" />
        <path
           style="fill:#ffffff"
           inkscape:connector-curvature="0"
           d="m 86.896,91.88 c 5.824,0 12.645,0 18.466,0 l -0.382,-0.653 c -5.821,0 -11.887,0 -17.711,0 l -0.373,0.653 z"
           id="path147" />
        <path
           style="fill:#ffffff"
           inkscape:connector-curvature="0"
           d="m 117.8,91.227 0.377,0.653 c 6.277,0 11.598,0 15.048,0 l 0,-0.653 c -3.52,0 -8.983,0 -15.425,0 z"
           id="path149" />
        <path
           style="fill:#ffffff"
           inkscape:connector-curvature="0"
           d="m 74.449,91.227 c -6.575,0 -12.14,0 -15.673,0 0,0 0,0.248 0,0.653 3.465,0 8.886,0 15.296,0 l 0.377,-0.653 z"
           id="path151" />
      </g>
    </g>
  </g>
</svg>
