<?xml version="1.0" encoding="UTF-8" standalone="no"?>
<!-- Generator: Adobe Illustrator 18.1.1, SVG Export Plug-In . SVG Version: 6.00 Build 0)  -->

<svg
   xmlns:dc="http://purl.org/dc/elements/1.1/"
   xmlns:cc="http://creativecommons.org/ns#"
   xmlns:rdf="http://www.w3.org/1999/02/22-rdf-syntax-ns#"
   xmlns:svg="http://www.w3.org/2000/svg"
   xmlns="http://www.w3.org/2000/svg"
   xmlns:xlink="http://www.w3.org/1999/xlink"
   xmlns:sodipodi="http://sodipodi.sourceforge.net/DTD/sodipodi-0.dtd"
   xmlns:inkscape="http://www.inkscape.org/namespaces/inkscape"
   version="1.1"
   id="Template"
   x="0px"
   y="0px"
   viewBox="0 0 192 192"
   enable-background="new 0 0 128 128"
   xml:space="preserve"
   inkscape:version="0.91 r"
   sodipodi:docname="monitor.svg"
   width="128"
   height="128"><metadata
     id="metadata25"><rdf:RDF><cc:Work
         rdf:about=""><dc:format>image/svg+xml</dc:format><dc:type
           rdf:resource="http://purl.org/dc/dcmitype/StillImage" /></cc:Work></rdf:RDF></metadata><defs
     id="defs23"><linearGradient
       id="linearGradient3554"
       gradientUnits="userSpaceOnUse"
       x1="96"
       y1="23.5"
       x2="96"
       y2="168.5"><stop
         offset="0"
         style="stop-color:#D2E8EF"
         id="stop5-8" /><stop
         offset="1"
         style="stop-color:#757473"
         id="stop7-6" /></linearGradient><linearGradient
       id="linearGradient3558"
       gradientUnits="userSpaceOnUse"
       x1="96"
       y1="26"
       x2="96"
       y2="166"><stop
         offset="0"
         style="stop-color:#181818"
         id="stop11-4" /><stop
         offset="1"
         style="stop-color:#000000"
         id="stop13-7" /></linearGradient><linearGradient
       inkscape:collect="always"
       xlink:href="#linearGradient3554"
       id="linearGradient3574-0"
       gradientUnits="userSpaceOnUse"
       x1="96"
       y1="23.5"
       x2="96"
       y2="168.5" /><linearGradient
       inkscape:collect="always"
       xlink:href="#linearGradient3558"
       id="linearGradient3576-4"
       gradientUnits="userSpaceOnUse"
       x1="96"
       y1="26"
       x2="96"
       y2="166" /><clipPath
       clipPathUnits="userSpaceOnUse"
       id="clipPath4588"><rect
         ry="0.92730772"
         rx="0.92730772"
         y="969.28418"
         x="12.922019"
         height="70.15596"
         width="70.15596"
         id="rect4590"
         style="fill:url(#linearGradient4592);fill-opacity:1;stroke:none" /></clipPath><linearGradient
       inkscape:collect="always"
       xlink:href="#linearGradient5054"
       id="linearGradient5105"
       gradientUnits="userSpaceOnUse"
       x1="25.120642"
       y1="1007.5927"
       x2="15.373938"
       y2="1007.5927"
       gradientTransform="matrix(1.0745718,0,0,1.0745718,-3.3653599,-74.347035)" /><linearGradient
       inkscape:collect="always"
       id="linearGradient5054"><stop
         style="stop-color:#82f8e1;stop-opacity:1;"
         offset="0"
         id="stop5056" /><stop
         style="stop-color:#82f8e1;stop-opacity:0;"
         offset="1"
         id="stop5058" /></linearGradient><filter
       inkscape:collect="always"
       id="filter5101"
       x="-0.21428572"
       width="1.4285713"
       y="-0.21428572"
       height="1.4285713"><feGaussianBlur
         inkscape:collect="always"
         stdDeviation="0.39459084"
         id="feGaussianBlur5103" /></filter><filter
       inkscape:collect="always"
       id="filter4160"
       x="-0.099321522"
       width="1.198643"
       y="-0.15155292"
       height="1.3031058"><feGaussianBlur
         inkscape:collect="always"
         stdDeviation="3.1637847"
         id="feGaussianBlur4162" /></filter><linearGradient
       inkscape:collect="always"
       xlink:href="#linearGradient4313"
       id="linearGradient3396"
       gradientUnits="userSpaceOnUse"
       x1="78.54496"
       y1="1035.3286"
       x2="45.48772"
       y2="970.04541"
       gradientTransform="matrix(1.252785,0,0,1.252785,18.355674,-1168.9598)" /><linearGradient
       id="linearGradient4313"
       inkscape:collect="always"><stop
         id="stop4315"
         offset="0"
         style="stop-color:#0e1412;stop-opacity:1" /><stop
         style="stop-color:#172925;stop-opacity:1"
         offset="0.52557451"
         id="stop3358" /><stop
         style="stop-color:#223f39;stop-opacity:1"
         offset="0.55177301"
         id="stop3356" /><stop
         id="stop4317"
         offset="1"
         style="stop-color:#2b3936;stop-opacity:1" /></linearGradient><linearGradient
       inkscape:collect="always"
       xlink:href="#linearGradient5054"
       id="linearGradient3476"
       gradientUnits="userSpaceOnUse"
       gradientTransform="matrix(1.0745718,0,0,1.0745718,-3.3653599,-74.347035)"
       x1="25.120642"
       y1="1007.5927"
       x2="15.373938"
       y2="1007.5927" /></defs><sodipodi:namedview
     pagecolor="#ffffff"
     bordercolor="#666666"
     borderopacity="1"
     objecttolerance="10"
     gridtolerance="10"
     guidetolerance="10"
     inkscape:pageopacity="0"
     inkscape:pageshadow="2"
     inkscape:window-width="1301"
     inkscape:window-height="744"
     id="namedview21"
     showgrid="false"
     inkscape:zoom="2"
     inkscape:cx="137.87834"
     inkscape:cy="32.164989"
     inkscape:window-x="65"
     inkscape:window-y="24"
     inkscape:window-maximized="1"
     inkscape:current-layer="Keyline_Shapes-4-7" /><g
     inkscape:groupmode="layer"
     id="layer6"
     inkscape:label="SHADOW5" /><g
     inkscape:groupmode="layer"
     id="layer5"
     inkscape:label="SHADOW4" /><g
     inkscape:groupmode="layer"
     id="layer4"
     inkscape:label="SHADOW3" /><g
     inkscape:groupmode="layer"
     id="layer3"
     inkscape:label="SHADOW2" /><g
     inkscape:groupmode="layer"
     id="layer2"
     inkscape:label="SHADOW1" /><g
     inkscape:groupmode="layer"
     id="layer1"
     inkscape:label="BASE"><g
       id="g4673"
       transform="translate(-3.6102284e-7,-1.4999974)"><g
         id="Keyline_Shapes-4-0-7"
         transform="translate(-13.024712,15.234052)"><linearGradient
           y2="168.5"
           x2="96"
           y1="23.5"
           x1="96"
           gradientUnits="userSpaceOnUse"
           id="linearGradient4632"><stop
             id="stop3517-7-2"
             style="stop-color:#D2E8EF"
             offset="0" /><stop
             id="stop3519-4-9"
             style="stop-color:#757473"
             offset="1" /></linearGradient><path
           style="opacity:0.02000002;fill:#000000;fill-opacity:1"
           inkscape:connector-curvature="0"
           d="m 183.55521,156.26594 -149.062001,0 c -4.401,0 -7.969,-3.568 -7.969,-7.969 l 0,-129.06199 c 0,-4.401 3.568,-7.969 7.969,-7.969 l 149.063001,0 c 4.401,0 7.969,3.568 7.969,7.969 l 0,129.06299 c -10e-4,4.4 -3.569,7.968 -7.97,7.968 z"
           id="Outter-4-2-7" /><linearGradient
           y2="166"
           x2="96"
           y1="26"
           x1="96"
           gradientUnits="userSpaceOnUse"
           id="linearGradient4637"><stop
             id="stop3524-6-9"
             style="stop-color:#181818"
             offset="0" /><stop
             id="stop3526-2-3"
             style="stop-color:#000000"
             offset="1" /></linearGradient></g><g
         id="Keyline_Shapes-4-0-0"
         transform="translate(-13.024712,14.484052)"><linearGradient
           y2="168.5"
           x2="96"
           y1="23.5"
           x1="96"
           gradientUnits="userSpaceOnUse"
           id="linearGradient4610"><stop
             id="stop3517-7-1"
             style="stop-color:#D2E8EF"
             offset="0" /><stop
             id="stop3519-4-2"
             style="stop-color:#757473"
             offset="1" /></linearGradient><path
           style="opacity:0.05;fill:#000000;fill-opacity:1"
           inkscape:connector-curvature="0"
           d="m 183.55521,156.26594 -149.062001,0 c -4.401,0 -7.969,-3.568 -7.969,-7.969 l 0,-129.06199 c 0,-4.401 3.568,-7.969 7.969,-7.969 l 149.063001,0 c 4.401,0 7.969,3.568 7.969,7.969 l 0,129.06299 c -10e-4,4.4 -3.569,7.968 -7.97,7.968 z"
           id="Outter-4-2-4" /><linearGradient
           y2="166"
           x2="96"
           y1="26"
           x1="96"
           gradientUnits="userSpaceOnUse"
           id="linearGradient4615"><stop
             id="stop3524-6-5"
             style="stop-color:#181818"
             offset="0" /><stop
             id="stop3526-2-8"
             style="stop-color:#000000"
             offset="1" /></linearGradient></g><g
         id="Keyline_Shapes-4-0"
         transform="translate(-13.024712,13.734052)"><linearGradient
           y2="168.5"
           x2="96"
           y1="23.5"
           x1="96"
           gradientUnits="userSpaceOnUse"
           id="linearGradient4556"><stop
             id="stop3517-7"
             style="stop-color:#D2E8EF"
             offset="0" /><stop
             id="stop3519-4"
             style="stop-color:#757473"
             offset="1" /></linearGradient><path
           style="opacity:0.05;fill:#000000;fill-opacity:1"
           inkscape:connector-curvature="0"
           d="m 183.55521,156.26594 -149.062001,0 c -4.401,0 -7.969,-3.568 -7.969,-7.969 l 0,-129.06199 c 0,-4.401 3.568,-7.969 7.969,-7.969 l 149.063001,0 c 4.401,0 7.969,3.568 7.969,7.969 l 0,129.06299 c -10e-4,4.4 -3.569,7.968 -7.97,7.968 z"
           id="Outter-4-2" /><linearGradient
           y2="166"
           x2="96"
           y1="26"
           x1="96"
           gradientUnits="userSpaceOnUse"
           id="linearGradient4561"><stop
             id="stop3524-6"
             style="stop-color:#181818"
             offset="0" /><stop
             id="stop3526-2"
             style="stop-color:#000000"
             offset="1" /></linearGradient></g><g
         id="Keyline_Shapes-4"
         transform="translate(-13.024712,12.984052)"><linearGradient
           y2="168.5"
           x2="96"
           y1="23.5"
           x1="96"
           gradientUnits="userSpaceOnUse"
           id="linearGradient3515"><stop
             id="stop3517"
             style="stop-color:#D2E8EF"
             offset="0" /><stop
             id="stop3519"
             style="stop-color:#757473"
             offset="1" /></linearGradient><path
           style="opacity:0.1;fill:#000000;fill-opacity:1"
           inkscape:connector-curvature="0"
           d="m 183.55521,156.26594 -149.062001,0 c -4.401,0 -7.969,-3.568 -7.969,-7.969 l 0,-129.06199 c 0,-4.401 3.568,-7.969 7.969,-7.969 l 149.063001,0 c 4.401,0 7.969,3.568 7.969,7.969 l 0,129.06299 c -10e-4,4.4 -3.569,7.968 -7.97,7.968 z"
           id="Outter-4" /><linearGradient
           y2="166"
           x2="96"
           y1="26"
           x1="96"
           gradientUnits="userSpaceOnUse"
           id="linearGradient3522"><stop
             id="stop3524"
             style="stop-color:#181818"
             offset="0" /><stop
             id="stop3526"
             style="stop-color:#000000"
             offset="1" /></linearGradient></g><g
         id="Keyline_Shapes-4-7"
         transform="translate(-5.0286102e-4,-2.861023e-6)"><linearGradient
           y2="168.5"
           x2="96"
           y1="23.5"
           x1="96"
           gradientUnits="userSpaceOnUse"
           id="linearGradient3638"><stop
             id="stop3517-8"
             style="stop-color:#D2E8EF"
             offset="0" /><stop
             id="stop3519-8"
             style="stop-color:#757473"
             offset="1" /></linearGradient><path
           style="fill:url(#linearGradient3574-0)"
           inkscape:connector-curvature="0"
           d="m 170.531,168.5 -149.062,0 c -4.401,0 -7.969,-3.568 -7.969,-7.969 l 0,-129.062 c 0,-4.401 3.568,-7.969 7.969,-7.969 l 149.063,0 c 4.401,0 7.969,3.568 7.969,7.969 l 0,129.063 c -0.001,4.4 -3.569,7.968 -7.97,7.968 z"
           id="Outter-4-3" /><linearGradient
           y2="166"
           x2="96"
           y1="26"
           x1="96"
           gradientUnits="userSpaceOnUse"
           id="linearGradient3643"><stop
             id="stop3524-5"
             style="stop-color:#181818"
             offset="0" /><stop
             id="stop3526-5"
             style="stop-color:#000000"
             offset="1" /></linearGradient><path
           style="fill:url(#linearGradient3576-4)"
           inkscape:connector-curvature="0"
           d="m 170,166 -148,0 c -3.314,0 -6,-2.686 -6,-6 L 16,32 c 0,-3.314 2.686,-6 6,-6 l 148,0 c 3.314,0 6,2.686 6,6 l 0,128 c 0,3.314 -2.686,6 -6,6 z"
           id="Inner-6-1" /><rect
           style="fill:#010000;fill-opacity:1"
           height="120"
           width="140"
           y="36"
           x="26"
           id="Square_2_-3-6" /><g
           id="g4278"
           transform="matrix(1.3303645,0,0,1.1403161,-8.4189489,-5.8189638)"><rect
             ry="1.3909615"
             rx="1.3909615"
             y="36.67313"
             x="25.872383"
             height="105.23394"
             width="105.23394"
             id="rect3394"
             style="opacity:0.75;fill:url(#linearGradient3396);fill-opacity:1;stroke:none" /><g
             clip-path="url(#clipPath4588)"
             id="g4558"
             transform="matrix(1.5,0,0,1.5,6.4893548,-1417.2531)"><g
               id="g5078"><rect
                 ry="0"
                 rx="0"
                 transform="translate(0,956.36218)"
                 y="17.25"
                 x="9"
                 height="1.5"
                 width="77"
                 id="rect3360"
                 style="opacity:0.2;fill:#2b3936;fill-opacity:1;stroke:none" /><rect
                 y="1003.8622"
                 x="9"
                 height="1"
                 width="78"
                 id="rect3364"
                 style="opacity:0.2;fill:#46e5cc;fill-opacity:1;stroke:none" /><rect
                 style="opacity:0.2;fill:#46e5cc;fill-opacity:1;stroke:none"
                 id="rect3366"
                 width="78"
                 height="1"
                 x="9"
                 y="1013.8622" /><rect
                 y="1023.8622"
                 x="9"
                 height="1"
                 width="78"
                 id="rect3368"
                 style="opacity:0.2;fill:#46e5cc;fill-opacity:1;stroke:none" /><rect
                 style="opacity:0.2;fill:#46e5cc;fill-opacity:1;stroke:none"
                 id="rect3370"
                 width="78"
                 height="1"
                 x="9"
                 y="1033.8622" /><rect
                 style="opacity:0.2;fill:#46e5cc;fill-opacity:1;stroke:none"
                 id="rect3372"
                 width="78"
                 height="1"
                 x="9"
                 y="993.86218" /><rect
                 y="983.86218"
                 x="9"
                 height="1"
                 width="78"
                 id="rect3374"
                 style="opacity:0.2;fill:#46e5cc;fill-opacity:1;stroke:none" /><rect
                 style="opacity:0.2;fill:#46e5cc;fill-opacity:1;stroke:none"
                 id="rect3376"
                 width="78"
                 height="1"
                 x="9"
                 y="973.86218" /><rect
                 transform="matrix(0,1,-1,0,0,0)"
                 style="opacity:0.2;fill:#46e5cc;fill-opacity:1;stroke:none"
                 id="rect3380"
                 width="78"
                 height="1"
                 x="965.36218"
                 y="-48.5" /><rect
                 transform="matrix(0,1,-1,0,0,0)"
                 y="-38.5"
                 x="965.36218"
                 height="1"
                 width="78"
                 id="rect3382"
                 style="opacity:0.2;fill:#46e5cc;fill-opacity:1;stroke:none" /><rect
                 transform="matrix(0,1,-1,0,0,0)"
                 style="opacity:0.2;fill:#46e5cc;fill-opacity:1;stroke:none"
                 id="rect3384"
                 width="78"
                 height="1"
                 x="965.36218"
                 y="-28.5" /><rect
                 transform="matrix(0,1,-1,0,0,0)"
                 y="-18.5"
                 x="965.36218"
                 height="1"
                 width="78"
                 id="rect3386"
                 style="opacity:0.2;fill:#46e5cc;fill-opacity:1;stroke:none" /><rect
                 transform="matrix(0,1,-1,0,0,0)"
                 y="-58.5"
                 x="965.36218"
                 height="1"
                 width="78"
                 id="rect3388"
                 style="opacity:0.2;fill:#46e5cc;fill-opacity:1;stroke:none" /><rect
                 transform="matrix(0,1,-1,0,0,0)"
                 style="opacity:0.2;fill:#46e5cc;fill-opacity:1;stroke:none"
                 id="rect3390"
                 width="78"
                 height="1"
                 x="965.36218"
                 y="-68.5" /><rect
                 transform="matrix(0,1,-1,0,0,0)"
                 y="-78.5"
                 x="965.36218"
                 height="1"
                 width="78"
                 id="rect3392"
                 style="opacity:0.2;fill:#46e5cc;fill-opacity:1;stroke:none" /></g><path
               style="fill:none;stroke:url(#linearGradient3476);stroke-width:2.1491437;stroke-linecap:round;stroke-linejoin:round;stroke-miterlimit:4;stroke-dasharray:none;stroke-opacity:1;marker-end:none"
               d="m 6.9043608,1009.0078 16.3245742,0 c 2.562663,-4.4387 4.597681,-4.5918 7.248727,0 l 7.662313,0 1.880502,5.5072 3.223714,-42.57996 3.62668,50.10186 3.358038,-13.0291 8.193609,0 c 2.912179,-10.86844 11.588119,-10.89239 14.506719,0 l 10.424653,0"
               id="path3408"
               inkscape:connector-curvature="0"
               sodipodi:nodetypes="ccccccccccc" /><circle
               transform="matrix(1.0745718,0,0,1.0745718,-3.2703804,953.33279)"
               id="path5095"
               style="fill:#76fbe2;fill-opacity:1;stroke:none;filter:url(#filter5101)"
               cx="80.698563"
               cy="51.894215"
               r="2.2097087" /><path
               sodipodi:nodetypes="ccccccccccc"
               inkscape:connector-curvature="0"
               id="path4158"
               d="m 6.9043608,1009.0078 16.3245742,0 c 2.562663,-4.4387 4.597681,-4.5918 7.248727,0 l 7.662313,0 1.880502,5.5072 3.223714,-42.57996 3.62668,50.10186 3.358038,-13.0291 8.193609,0 c 2.912179,-10.86844 11.588119,-10.89239 14.506719,0 l 10.424653,0"
               style="fill:none;stroke:url(#linearGradient5105);stroke-width:2.1491437;stroke-linecap:round;stroke-linejoin:round;stroke-miterlimit:4;stroke-dasharray:none;stroke-opacity:1;marker-end:none;filter:url(#filter4160)" /><circle
               style="fill:#76fbe2;fill-opacity:1;stroke:none"
               id="path5076"
               transform="matrix(1.0745718,0,0,1.0745718,-3.2703804,953.33279)"
               cx="80.698563"
               cy="51.894215"
               r="2.2097087" /></g></g></g></g></g></svg>