<?xml version="1.0" encoding="UTF-8" standalone="no"?>
<!-- Generator: Adobe Illustrator 18.1.1, SVG Export Plug-In . SVG Version: 6.00 Build 0)  -->

<svg
   xmlns:dc="http://purl.org/dc/elements/1.1/"
   xmlns:cc="http://creativecommons.org/ns#"
   xmlns:rdf="http://www.w3.org/1999/02/22-rdf-syntax-ns#"
   xmlns:svg="http://www.w3.org/2000/svg"
   xmlns="http://www.w3.org/2000/svg"
   xmlns:xlink="http://www.w3.org/1999/xlink"
   xmlns:sodipodi="http://sodipodi.sourceforge.net/DTD/sodipodi-0.dtd"
   xmlns:inkscape="http://www.inkscape.org/namespaces/inkscape"
   version="1.1"
   id="Template"
   x="0px"
   y="0px"
   viewBox="0 0 192 192"
   enable-background="new 0 0 128 128"
   xml:space="preserve"
   inkscape:version="0.91 r"
   sodipodi:docname="Terminal.svg"
   width="22"
   height="22"><metadata
     id="metadata25"><rdf:RDF><cc:Work
         rdf:about=""><dc:format>image/svg+xml</dc:format><dc:type
           rdf:resource="http://purl.org/dc/dcmitype/StillImage" /></cc:Work></rdf:RDF></metadata><defs
     id="defs23"><linearGradient
       id="linearGradient3554"
       gradientUnits="userSpaceOnUse"
       x1="96"
       y1="23.5"
       x2="96"
       y2="168.5"><stop
         offset="0"
         style="stop-color:#D2E8EF"
         id="stop5-8" /><stop
         offset="1"
         style="stop-color:#757473"
         id="stop7-6" /></linearGradient><linearGradient
       id="linearGradient3558"
       gradientUnits="userSpaceOnUse"
       x1="96"
       y1="26"
       x2="96"
       y2="166"><stop
         offset="0"
         style="stop-color:#181818"
         id="stop11-4" /><stop
         offset="1"
         style="stop-color:#000000"
         id="stop13-7" /></linearGradient><linearGradient
       inkscape:collect="always"
       xlink:href="#linearGradient3554"
       id="linearGradient3574-0"
       gradientUnits="userSpaceOnUse"
       x1="96"
       y1="23.5"
       x2="96"
       y2="168.5" /><linearGradient
       inkscape:collect="always"
       xlink:href="#linearGradient3558"
       id="linearGradient3576-4"
       gradientUnits="userSpaceOnUse"
       x1="96"
       y1="26"
       x2="96"
       y2="166" /></defs><sodipodi:namedview
     pagecolor="#ffffff"
     bordercolor="#666666"
     borderopacity="1"
     objecttolerance="10"
     gridtolerance="10"
     guidetolerance="10"
     inkscape:pageopacity="0"
     inkscape:pageshadow="2"
     inkscape:window-width="1301"
     inkscape:window-height="744"
     id="namedview21"
     showgrid="false"
     inkscape:zoom="11.313708"
     inkscape:cx="17.171879"
     inkscape:cy="17.550527"
     inkscape:window-x="65"
     inkscape:window-y="24"
     inkscape:window-maximized="1"
     inkscape:current-layer="layer1" /><g
     inkscape:groupmode="layer"
     id="layer6"
     inkscape:label="SHADOW5" /><g
     inkscape:groupmode="layer"
     id="layer5"
     inkscape:label="SHADOW4" /><g
     inkscape:groupmode="layer"
     id="layer4"
     inkscape:label="SHADOW3" /><g
     inkscape:groupmode="layer"
     id="layer3"
     inkscape:label="SHADOW2" /><g
     inkscape:groupmode="layer"
     id="layer2"
     inkscape:label="SHADOW1" /><g
     inkscape:groupmode="layer"
     id="layer1"
     inkscape:label="BASE"><g
       id="g4673"
       transform="matrix(1.1636293,0,0,1.1636293,-15.708412,-17.453853)"><g
         id="Keyline_Shapes-4-0-7"
         transform="translate(-13.024712,15.234052)"><linearGradient
           y2="168.5"
           x2="96"
           y1="23.5"
           x1="96"
           gradientUnits="userSpaceOnUse"
           id="linearGradient4632"><stop
             id="stop3517-7-2"
             style="stop-color:#D2E8EF"
             offset="0" /><stop
             id="stop3519-4-9"
             style="stop-color:#757473"
             offset="1" /></linearGradient><path
           style="opacity:0.02000002;fill:#000000;fill-opacity:1"
           inkscape:connector-curvature="0"
           d="m 183.55521,156.26594 -149.062001,0 c -4.401,0 -7.969,-3.568 -7.969,-7.969 l 0,-129.06199 c 0,-4.401 3.568,-7.969 7.969,-7.969 l 149.063001,0 c 4.401,0 7.969,3.568 7.969,7.969 l 0,129.06299 c -10e-4,4.4 -3.569,7.968 -7.97,7.968 z"
           id="Outter-4-2-7" /><linearGradient
           y2="166"
           x2="96"
           y1="26"
           x1="96"
           gradientUnits="userSpaceOnUse"
           id="linearGradient4637"><stop
             id="stop3524-6-9"
             style="stop-color:#181818"
             offset="0" /><stop
             id="stop3526-2-3"
             style="stop-color:#000000"
             offset="1" /></linearGradient></g><g
         id="Keyline_Shapes-4-0-0"
         transform="translate(-13.024712,14.484052)"><linearGradient
           y2="168.5"
           x2="96"
           y1="23.5"
           x1="96"
           gradientUnits="userSpaceOnUse"
           id="linearGradient4610"><stop
             id="stop3517-7-1"
             style="stop-color:#D2E8EF"
             offset="0" /><stop
             id="stop3519-4-2"
             style="stop-color:#757473"
             offset="1" /></linearGradient><path
           style="opacity:0.05;fill:#000000;fill-opacity:1"
           inkscape:connector-curvature="0"
           d="m 183.55521,156.26594 -149.062001,0 c -4.401,0 -7.969,-3.568 -7.969,-7.969 l 0,-129.06199 c 0,-4.401 3.568,-7.969 7.969,-7.969 l 149.063001,0 c 4.401,0 7.969,3.568 7.969,7.969 l 0,129.06299 c -10e-4,4.4 -3.569,7.968 -7.97,7.968 z"
           id="Outter-4-2-4" /><linearGradient
           y2="166"
           x2="96"
           y1="26"
           x1="96"
           gradientUnits="userSpaceOnUse"
           id="linearGradient4615"><stop
             id="stop3524-6-5"
             style="stop-color:#181818"
             offset="0" /><stop
             id="stop3526-2-8"
             style="stop-color:#000000"
             offset="1" /></linearGradient></g><g
         id="Keyline_Shapes-4-0"
         transform="translate(-13.024712,13.734052)"><linearGradient
           y2="168.5"
           x2="96"
           y1="23.5"
           x1="96"
           gradientUnits="userSpaceOnUse"
           id="linearGradient4556"><stop
             id="stop3517-7"
             style="stop-color:#D2E8EF"
             offset="0" /><stop
             id="stop3519-4"
             style="stop-color:#757473"
             offset="1" /></linearGradient><path
           style="opacity:0.05;fill:#000000;fill-opacity:1"
           inkscape:connector-curvature="0"
           d="m 183.55521,156.26594 -149.062001,0 c -4.401,0 -7.969,-3.568 -7.969,-7.969 l 0,-129.06199 c 0,-4.401 3.568,-7.969 7.969,-7.969 l 149.063001,0 c 4.401,0 7.969,3.568 7.969,7.969 l 0,129.06299 c -10e-4,4.4 -3.569,7.968 -7.97,7.968 z"
           id="Outter-4-2" /><linearGradient
           y2="166"
           x2="96"
           y1="26"
           x1="96"
           gradientUnits="userSpaceOnUse"
           id="linearGradient4561"><stop
             id="stop3524-6"
             style="stop-color:#181818"
             offset="0" /><stop
             id="stop3526-2"
             style="stop-color:#000000"
             offset="1" /></linearGradient></g><g
         id="Keyline_Shapes-4"
         transform="translate(-13.024712,12.984052)"><linearGradient
           y2="168.5"
           x2="96"
           y1="23.5"
           x1="96"
           gradientUnits="userSpaceOnUse"
           id="linearGradient3515"><stop
             id="stop3517"
             style="stop-color:#D2E8EF"
             offset="0" /><stop
             id="stop3519"
             style="stop-color:#757473"
             offset="1" /></linearGradient><path
           style="opacity:0.1;fill:#000000;fill-opacity:1"
           inkscape:connector-curvature="0"
           d="m 183.55521,156.26594 -149.062001,0 c -4.401,0 -7.969,-3.568 -7.969,-7.969 l 0,-129.06199 c 0,-4.401 3.568,-7.969 7.969,-7.969 l 149.063001,0 c 4.401,0 7.969,3.568 7.969,7.969 l 0,129.06299 c -10e-4,4.4 -3.569,7.968 -7.97,7.968 z"
           id="Outter-4" /><linearGradient
           y2="166"
           x2="96"
           y1="26"
           x1="96"
           gradientUnits="userSpaceOnUse"
           id="linearGradient3522"><stop
             id="stop3524"
             style="stop-color:#181818"
             offset="0" /><stop
             id="stop3526"
             style="stop-color:#000000"
             offset="1" /></linearGradient></g><g
         id="Keyline_Shapes-4-7"
         transform="translate(-5.0286102e-4,-2.861023e-6)"><linearGradient
           y2="168.5"
           x2="96"
           y1="23.5"
           x1="96"
           gradientUnits="userSpaceOnUse"
           id="linearGradient3638"><stop
             id="stop3517-8"
             style="stop-color:#D2E8EF"
             offset="0" /><stop
             id="stop3519-8"
             style="stop-color:#757473"
             offset="1" /></linearGradient><path
           style="fill:url(#linearGradient3574-0)"
           inkscape:connector-curvature="0"
           d="m 170.531,168.5 -149.062,0 c -4.401,0 -7.969,-3.568 -7.969,-7.969 l 0,-129.062 c 0,-4.401 3.568,-7.969 7.969,-7.969 l 149.063,0 c 4.401,0 7.969,3.568 7.969,7.969 l 0,129.063 c -0.001,4.4 -3.569,7.968 -7.97,7.968 z"
           id="Outter-4-3" /><linearGradient
           y2="166"
           x2="96"
           y1="26"
           x1="96"
           gradientUnits="userSpaceOnUse"
           id="linearGradient3643"><stop
             id="stop3524-5"
             style="stop-color:#181818"
             offset="0" /><stop
             id="stop3526-5"
             style="stop-color:#000000"
             offset="1" /></linearGradient><path
           style="fill:url(#linearGradient3576-4)"
           inkscape:connector-curvature="0"
           d="m 170,166 -148,0 c -3.314,0 -6,-2.686 -6,-6 L 16,32 c 0,-3.314 2.686,-6 6,-6 l 148,0 c 3.314,0 6,2.686 6,6 l 0,128 c 0,3.314 -2.686,6 -6,6 z"
           id="Inner-6-1" /><rect
           style="fill:#262626"
           height="120"
           width="140"
           y="36"
           x="26"
           id="Square_2_-3-6" /><rect
           style="fill:#ffffff"
           id="rect17-5-7"
           height="5"
           width="23.5"
           y="71.188004"
           x="59.292" /><path
           style="fill:#ffffff"
           inkscape:connector-curvature="0"
           id="path19-9-0"
           d="m 58.888,54.427 c -3.129,-1.253 -20.993,-8.398 -24.075,-9.631 0,1.306 0,3.634 0,6.131 l 17,6.01 -17,6.031 c 0,2.497 0,4.826 0,6.131 3.083,-1.233 20.947,-8.379 24.075,-9.631 0,-0.085 0,-5.094 0,-5.094 l 0,0.053 z" /></g></g></g></svg>