<?xml version="1.0" encoding="UTF-8" standalone="no"?>
<!-- Created with Inkscape (http://www.inkscape.org/) -->

<svg
   xmlns:dc="http://purl.org/dc/elements/1.1/"
   xmlns:cc="http://creativecommons.org/ns#"
   xmlns:rdf="http://www.w3.org/1999/02/22-rdf-syntax-ns#"
   xmlns:svg="http://www.w3.org/2000/svg"
   xmlns="http://www.w3.org/2000/svg"
   xmlns:xlink="http://www.w3.org/1999/xlink"
   xmlns:sodipodi="http://sodipodi.sourceforge.net/DTD/sodipodi-0.dtd"
   xmlns:inkscape="http://www.inkscape.org/namespaces/inkscape"
   width="32"
   height="32"
   id="svg8561"
   version="1.1"
   inkscape:version="0.91 r"
   sodipodi:docname="calendar.svg">
  <defs
     id="defs8563">
    <linearGradient
       id="linearGradient4542">
      <stop
         id="stop4544"
         offset="0"
         style="stop-color:#e7534b;stop-opacity:1" />
      <stop
         id="stop4546"
         offset="1"
         style="stop-color:#e3342a;stop-opacity:1;" />
    </linearGradient>
    <linearGradient
       id="linearGradient4228"
       inkscape:collect="always">
      <stop
         id="stop4230"
         offset="0"
         style="stop-color:#242626;stop-opacity:1" />
      <stop
         id="stop4232"
         offset="1"
         style="stop-color:#242626;stop-opacity:1" />
    </linearGradient>
    <linearGradient
       id="linearGradient4222">
      <stop
         id="stop4224"
         offset="0"
         style="stop-color:#728086;stop-opacity:1" />
      <stop
         id="stop4226"
         offset="1"
         style="stop-color:#708189;stop-opacity:1" />
    </linearGradient>
    <linearGradient
       id="linearGradient4201"
       inkscape:collect="always">
      <stop
         id="stop4203"
         offset="0"
         style="stop-color:#5e5e56;stop-opacity:1" />
      <stop
         id="stop4205"
         offset="1"
         style="stop-color:#b6bab9;stop-opacity:1" />
    </linearGradient>
    <linearGradient
       id="linearGradient9275">
      <stop
         style="stop-color:#1f1f1f;stop-opacity:1;"
         offset="0"
         id="stop9277" />
      <stop
         style="stop-color:#42474f;stop-opacity:1;"
         offset="1"
         id="stop9279" />
    </linearGradient>
    <linearGradient
       id="linearGradient9208">
      <stop
         style="stop-color:#e8574f;stop-opacity:1;"
         offset="0"
         id="stop9210" />
      <stop
         style="stop-color:#e3342a;stop-opacity:1;"
         offset="1"
         id="stop9212" />
    </linearGradient>
    <linearGradient
       id="linearGradient9188">
      <stop
         id="stop9190"
         offset="0"
         style="stop-color:#e8eae8;stop-opacity:1;" />
      <stop
         id="stop9192"
         offset="1"
         style="stop-color:#b4bcc2;stop-opacity:1;" />
    </linearGradient>
    <linearGradient
       inkscape:collect="always"
       id="linearGradient9106">
      <stop
         style="stop-color:#000000;stop-opacity:1;"
         offset="0"
         id="stop9108" />
      <stop
         style="stop-color:#000000;stop-opacity:0;"
         offset="1"
         id="stop9110" />
    </linearGradient>
    <linearGradient
       id="linearGradient9096">
      <stop
         style="stop-color:#dce0dc;stop-opacity:1;"
         offset="0"
         id="stop9098" />
      <stop
         style="stop-color:#eceeef;stop-opacity:1;"
         offset="1"
         id="stop9100" />
    </linearGradient>
    <clipPath
       clipPathUnits="userSpaceOnUse"
       id="clipPath8582">
      <rect
         style="color:#000000;display:inline;overflow:visible;visibility:visible;opacity:0.77381909;fill:#237efe;fill-opacity:1;fill-rule:nonzero;stroke:none;stroke-width:14.00999928;marker:none;enable-background:accumulate"
         id="rect8584"
         width="65.89286"
         height="63.92857"
         x="-235.625"
         y="1118.7014"
         rx="6.3964849"
         ry="6.3964844" />
    </clipPath>
    <linearGradient
       inkscape:collect="always"
       xlink:href="#linearGradient9096"
       id="linearGradient9102"
       x1="-210.26785"
       y1="328.39285"
       x2="-219.10715"
       y2="273.75"
       gradientUnits="userSpaceOnUse" />
    <linearGradient
       inkscape:collect="always"
       xlink:href="#linearGradient9106"
       id="linearGradient9112"
       x1="-196.33929"
       y1="328.79465"
       x2="-200.17857"
       y2="307.72324"
       gradientUnits="userSpaceOnUse" />
    <linearGradient
       inkscape:collect="always"
       xlink:href="#linearGradient9096-6"
       id="linearGradient9102-9"
       x1="-210.26785"
       y1="328.39285"
       x2="-219.10715"
       y2="273.75"
       gradientUnits="userSpaceOnUse" />
    <linearGradient
       id="linearGradient9096-6">
      <stop
         style="stop-color:#1d211d;stop-opacity:1;"
         offset="0"
         id="stop9098-5" />
      <stop
         style="stop-color:#b4bcc2;stop-opacity:1;"
         offset="1"
         id="stop9100-8" />
    </linearGradient>
    <linearGradient
       gradientTransform="translate(0,852.36215)"
       y2="273.75"
       x2="-219.10715"
       y1="328.39285"
       x1="-210.26785"
       gradientUnits="userSpaceOnUse"
       id="linearGradient9129"
       xlink:href="#linearGradient9096-6"
       inkscape:collect="always" />
    <clipPath
       clipPathUnits="userSpaceOnUse"
       id="clipPath9148">
      <path
         style="fill:url(#linearGradient9152);fill-opacity:1;stroke:none"
         d="m -232.41071,276.87505 52.5,-8.3036 8.48214,51.7857 -52.94643,8.9286 z"
         id="path9150"
         inkscape:connector-curvature="0" />
    </clipPath>
    <linearGradient
       inkscape:collect="always"
       xlink:href="#linearGradient9096-6"
       id="linearGradient9152"
       gradientUnits="userSpaceOnUse"
       x1="-210.26785"
       y1="328.39285"
       x2="-219.10715"
       y2="273.75" />
    <linearGradient
       inkscape:collect="always"
       xlink:href="#linearGradient9096-7"
       id="linearGradient9102-8"
       x1="-210.26785"
       y1="328.39285"
       x2="-219.10715"
       y2="273.75"
       gradientUnits="userSpaceOnUse" />
    <linearGradient
       id="linearGradient9096-7">
      <stop
         style="stop-color:#1d211d;stop-opacity:1;"
         offset="0"
         id="stop9098-9" />
      <stop
         style="stop-color:#b4bcc2;stop-opacity:1;"
         offset="1"
         id="stop9100-9" />
    </linearGradient>
    <linearGradient
       gradientTransform="translate(0,852.36215)"
       y2="273.75"
       x2="-219.10715"
       y1="328.39285"
       x1="-210.26785"
       gradientUnits="userSpaceOnUse"
       id="linearGradient9169"
       xlink:href="#linearGradient9188"
       inkscape:collect="always" />
    <linearGradient
       inkscape:collect="always"
       xlink:href="#linearGradient9208"
       id="linearGradient9214"
       x1="-211.69643"
       y1="267.45535"
       x2="-206.33928"
       y2="290.22324"
       gradientUnits="userSpaceOnUse" />
    <linearGradient
       gradientTransform="translate(0,852.36215)"
       y2="273.75"
       x2="-219.10715"
       y1="328.39285"
       x1="-210.26785"
       gradientUnits="userSpaceOnUse"
       id="linearGradient9169-7"
       xlink:href="#linearGradient9188-6"
       inkscape:collect="always" />
    <linearGradient
       id="linearGradient9188-6">
      <stop
         id="stop9190-3"
         offset="0"
         style="stop-color:#e8eae8;stop-opacity:1;" />
      <stop
         id="stop9192-9"
         offset="1"
         style="stop-color:#b4bcc2;stop-opacity:1;" />
    </linearGradient>
    <linearGradient
       y2="273.75"
       x2="-219.10715"
       y1="328.39285"
       x1="-210.26785"
       gradientTransform="translate(0,852.36215)"
       gradientUnits="userSpaceOnUse"
       id="linearGradient9248"
       xlink:href="#linearGradient9188-6"
       inkscape:collect="always" />
    <clipPath
       clipPathUnits="userSpaceOnUse"
       id="clipPath9267">
      <path
         style="fill:url(#linearGradient9271);fill-opacity:1;stroke:none"
         d="m -230.71428,273.48215 47.14286,-6.7857 8.21428,50.625 -47.5,7.4107 z"
         id="path9269"
         inkscape:connector-curvature="0"
         sodipodi:nodetypes="ccccc" />
    </clipPath>
    <linearGradient
       inkscape:collect="always"
       xlink:href="#linearGradient9188-6"
       id="linearGradient9271"
       gradientUnits="userSpaceOnUse"
       x1="-210.26785"
       y1="328.39285"
       x2="-219.10715"
       y2="273.75" />
    <linearGradient
       inkscape:collect="always"
       xlink:href="#linearGradient9275"
       id="linearGradient9281"
       x1="-200.35715"
       y1="319.50894"
       x2="-198.21428"
       y2="333.34821"
       gradientUnits="userSpaceOnUse" />
    <linearGradient
       inkscape:collect="always"
       xlink:href="#linearGradient9106"
       id="linearGradient9337"
       x1="-193.3259"
       y1="319.84375"
       x2="-193.66072"
       y2="317.58929"
       gradientUnits="userSpaceOnUse" />
    <linearGradient
       gradientTransform="translate(0,852.36215)"
       y2="273.75"
       x2="-219.10715"
       y1="328.39285"
       x1="-210.26785"
       gradientUnits="userSpaceOnUse"
       id="linearGradient9169-9"
       xlink:href="#linearGradient9188-3"
       inkscape:collect="always" />
    <linearGradient
       id="linearGradient9188-3">
      <stop
         id="stop9190-5"
         offset="0"
         style="stop-color:#e8eae8;stop-opacity:1;" />
      <stop
         id="stop9192-8"
         offset="1"
         style="stop-color:#b4bcc2;stop-opacity:1;" />
    </linearGradient>
    <linearGradient
       y2="273.75"
       x2="-219.10715"
       y1="328.39285"
       x1="-210.26785"
       gradientTransform="translate(0,852.36215)"
       gradientUnits="userSpaceOnUse"
       id="linearGradient9248-0"
       xlink:href="#linearGradient9188-3"
       inkscape:collect="always" />
    <clipPath
       clipPathUnits="userSpaceOnUse"
       id="clipPath9356">
      <path
         style="fill:url(#linearGradient9360);fill-opacity:1;stroke:none"
         d="m -230.71428,273.48215 47.14286,-6.7857 8.21428,50.625 -47.5,7.4107 z"
         id="path9358"
         inkscape:connector-curvature="0"
         sodipodi:nodetypes="ccccc" />
    </clipPath>
    <linearGradient
       inkscape:collect="always"
       xlink:href="#linearGradient9188-3"
       id="linearGradient9360"
       gradientUnits="userSpaceOnUse"
       x1="-210.26785"
       y1="328.39285"
       x2="-219.10715"
       y2="273.75" />
    <linearGradient
       inkscape:collect="always"
       xlink:href="#linearGradient4222"
       id="linearGradient9393"
       gradientUnits="userSpaceOnUse"
       x1="-171.44197"
       y1="320.35248"
       x2="-224.38498"
       y2="329.30154" />
    <linearGradient
       inkscape:collect="always"
       xlink:href="#linearGradient4228"
       id="linearGradient9395"
       gradientUnits="userSpaceOnUse"
       x1="-196.33929"
       y1="328.79465"
       x2="-200.17857"
       y2="307.72324" />
    <linearGradient
       inkscape:collect="always"
       xlink:href="#linearGradient4542"
       id="linearGradient9399"
       gradientUnits="userSpaceOnUse"
       x1="-211.69643"
       y1="267.45535"
       x2="-206.33928"
       y2="290.22324" />
    <linearGradient
       inkscape:collect="always"
       xlink:href="#linearGradient4201"
       id="linearGradient9401"
       gradientUnits="userSpaceOnUse"
       x1="-193.3259"
       y1="319.84375"
       x2="-193.66072"
       y2="317.58929" />
  </defs>
  <sodipodi:namedview
     id="base"
     pagecolor="#ffffff"
     bordercolor="#666666"
     borderopacity="1.0"
     inkscape:pageopacity="0.0"
     inkscape:pageshadow="2"
     inkscape:zoom="4"
     inkscape:cx="-22.783374"
     inkscape:cy="30.764147"
     inkscape:document-units="px"
     inkscape:current-layer="g9380"
     showgrid="false"
     inkscape:window-width="1301"
     inkscape:window-height="744"
     inkscape:window-x="65"
     inkscape:window-y="24"
     inkscape:window-maximized="1"
     showguides="false" />
  <metadata
     id="metadata8566">
    <rdf:RDF>
      <cc:Work
         rdf:about="">
        <dc:format>image/svg+xml</dc:format>
        <dc:type
           rdf:resource="http://purl.org/dc/dcmitype/StillImage" />
        <dc:title />
      </cc:Work>
    </rdf:RDF>
  </metadata>
  <g
     inkscape:label="Layer 1"
     inkscape:groupmode="layer"
     id="layer1"
     transform="translate(0,-852.36215)">
    <g
       id="g9380"
       transform="matrix(2.9367257,0,0,2.9367257,690.0681,-2424.8984)">
      <g
         id="g4231"
         transform="matrix(0.16000034,0,0,0.16000034,-197.22332,937.34394)">
        <path
           style="opacity:1;fill:url(#linearGradient9393);fill-opacity:1;stroke:#464646;stroke-width:0.10215459;stroke-miterlimit:4;stroke-dasharray:none;stroke-opacity:1"
           d="m -232.41071,276.875 52.5,-8.30357 8.48214,51.78571 -52.94643,8.92857 z"
           id="path8586"
           inkscape:connector-curvature="0"
           transform="translate(0,852.36215)" />
        <path
           sodipodi:nodetypes="cc"
           inkscape:connector-curvature="0"
           id="path4236-5-8"
           d="m -232.34073,1129.3587 2.11293,-0.3287"
           style="fill:none;fill-rule:evenodd;stroke:#646464;stroke-width:0.17025764;stroke-linecap:butt;stroke-linejoin:miter;stroke-miterlimit:4;stroke-dasharray:none;stroke-opacity:1" />
        <path
           style="opacity:0.05;fill:#000000;fill-opacity:1;stroke:none"
           d="m -231.53956,1127.071 47.26793,-6.8037 8.23607,50.7593 -47.62601,7.4304 z"
           id="path8586-3-0-5-4-9-1-1-7-1"
           inkscape:connector-curvature="0"
           sodipodi:nodetypes="ccccc" />
        <path
           style="opacity:0.1;fill:#000000;fill-opacity:1;stroke:none"
           d="m -231.40335,1126.9007 47.26793,-6.8037 8.23607,50.7593 -47.62601,7.4304 z"
           id="path8586-3-0-5-4-9-1-1-7"
           inkscape:connector-curvature="0"
           sodipodi:nodetypes="ccccc" />
        <path
           style="opacity:0.1;fill:#000000;fill-opacity:1;stroke:none"
           d="m -231.26714,1126.7304 47.26793,-6.8037 8.23607,50.7593 -47.62601,7.4304 z"
           id="path8586-3-0-5-4-9-1-1"
           inkscape:connector-curvature="0"
           sodipodi:nodetypes="ccccc" />
        <path
           style="opacity:0.15;fill:#000000;fill-opacity:1;stroke:none"
           d="m -231.13093,1126.5601 47.26793,-6.8037 8.23607,50.7593 -47.62601,7.4304 z"
           id="path8586-3-0-5-4-9-1"
           inkscape:connector-curvature="0"
           sodipodi:nodetypes="ccccc" />
        <path
           style="opacity:0.15;fill:#000000;fill-opacity:1;stroke:none"
           d="m -230.99472,1126.3898 47.26793,-6.8037 8.23607,50.7593 -47.62601,7.4304 z"
           id="path8586-3-0-5-4-9"
           inkscape:connector-curvature="0"
           sodipodi:nodetypes="ccccc" />
        <path
           style="opacity:0.2;fill:#000000;fill-opacity:1;stroke:none"
           d="m -230.85851,1126.2195 47.26793,-6.8037 8.23607,50.7593 -47.62601,7.4304 z"
           id="path8586-3-0-5-4"
           inkscape:connector-curvature="0"
           sodipodi:nodetypes="ccccc" />
        <path
           style="opacity:0.2;fill:#000000;fill-opacity:1;stroke:none"
           d="m -230.89256,1126.0492 47.26793,-6.8037 8.23607,50.7593 -47.62601,7.4304 z"
           id="path8586-3-0-5"
           inkscape:connector-curvature="0"
           sodipodi:nodetypes="ccccc" />
        <path
           sodipodi:nodetypes="cc"
           inkscape:connector-curvature="0"
           id="path4236"
           d="m -183.16417,1121.5819 3.22654,-0.5093"
           style="fill:none;fill-rule:evenodd;stroke:#505050;stroke-width:0.17025764;stroke-linecap:butt;stroke-linejoin:miter;stroke-miterlimit:4;stroke-dasharray:none;stroke-opacity:1" />
        <path
           style="fill:url(#linearGradient9395);fill-opacity:1;stroke:none"
           d="m -226.96429,327.05357 59.91072,-9.73214 -1.96429,5.89286 -57.61968,6.83305 z"
           id="path9104"
           inkscape:connector-curvature="0"
           transform="translate(0,852.36215)"
           clip-path="url(#clipPath9148)"
           sodipodi:nodetypes="ccccc" />
        <path
           sodipodi:nodetypes="cc"
           inkscape:connector-curvature="0"
           id="path4236-5"
           d="m -183.13852,1121.75 3.22654,-0.5093"
           style="fill:none;fill-rule:evenodd;stroke:#646464;stroke-width:0.17025764;stroke-linecap:butt;stroke-linejoin:miter;stroke-miterlimit:4;stroke-dasharray:none;stroke-opacity:1" />
        <path
           style="opacity:0.45;fill:#000000;fill-opacity:1;stroke:none"
           d="m -230.75866,1125.8686 47.26793,-6.8037 8.23607,50.7593 -47.62601,7.4304 z"
           id="path8586-3-0"
           inkscape:connector-curvature="0"
           sodipodi:nodetypes="ccccc" />
        <path
           style="fill:#ffffff;fill-opacity:1;stroke:none"
           d="m -230.71428,1125.8443 47.14286,-6.7857 8.21428,50.625 -47.5,7.4107 z"
           id="path8586-3"
           inkscape:connector-curvature="0"
           sodipodi:nodetypes="ccccc" />
        <path
           style="fill:url(#linearGradient9399);fill-opacity:1;stroke:none"
           d="m -230.35714,288.66071 52.58928,-8.75 -4.64285,-15.26785 -54.64286,5.17857 z"
           id="path9194"
           inkscape:connector-curvature="0"
           transform="translate(0,852.36215)"
           clip-path="url(#clipPath9267)" />
        <path
           style="fill:url(#linearGradient9401);fill-opacity:1;stroke:none"
           d="m -224.82143,322.85714 59.01786,-9.91071 -12.76786,7.32143 -44.82143,6.07143 z"
           id="path9329"
           inkscape:connector-curvature="0"
           transform="translate(0,852.36215)"
           clip-path="url(#clipPath9356)" />
        <g
           transform="matrix(0.98432624,-0.1763572,0.1763572,0.98432624,-44.388385,-6.9943944)"
           style="font-style:normal;font-weight:normal;font-size:11.1793623px;line-height:125%;font-family:Sans;letter-spacing:0px;word-spacing:0px;fill:#ffffff;fill-opacity:1;stroke:none;stroke-width:0.08512882;stroke-miterlimit:4;stroke-dasharray:none;stroke-opacity:0.66666667"
           id="text9362">
          <path
             d="m -363.23938,1094.1941 0,-6.5176 -2.89546,5.0419 -0.45835,0 -2.90664,-5.0419 0,6.5176 -0.77137,0 0,-7.9374 0.79373,0 3.10787,5.4332 3.10786,-5.4332 0.79373,0 0,7.9374 -0.77137,0"
             style="font-variant:normal;font-stretch:normal;line-height:125%;font-family:Raleway;-inkscape-font-specification:Raleway;text-align:start;writing-mode:lr-tb;text-anchor:start;fill:#ffffff;stroke:none;stroke-width:0.08512882;stroke-miterlimit:4;stroke-dasharray:none;stroke-opacity:0.66666667"
             id="path9374"
             inkscape:connector-curvature="0" />
          <path
             d="m -361.28404,1094.1941 3.32027,-7.9374 0.63722,0 3.32027,7.9374 -0.83845,0 -1.0285,-2.4818 -3.56622,0 -1.01732,2.4818 -0.82727,0 m 3.64447,-7.0206 -1.63219,3.9239 3.21966,0 -1.58747,-3.9239"
             style="font-variant:normal;font-stretch:normal;line-height:125%;font-family:Raleway;-inkscape-font-specification:Raleway;text-align:start;writing-mode:lr-tb;text-anchor:start;fill:#ffffff;stroke:none;stroke-width:0.08512882;stroke-miterlimit:4;stroke-dasharray:none;stroke-opacity:0.66666667"
             id="path9376"
             inkscape:connector-curvature="0" />
          <path
             d="m -352.84712,1094.1941 0,-7.9374 3.34263,0 c 0.34283,1e-4 0.65958,0.075 0.95025,0.2236 0.29066,0.1416 0.54033,0.3317 0.74901,0.5702 0.20868,0.231 0.36892,0.4956 0.48072,0.7937 0.11924,0.2981 0.17886,0.6 0.17887,0.9055 -10e-6,0.2907 -0.0447,0.5702 -0.13416,0.8385 -0.082,0.2609 -0.20123,0.4993 -0.35773,0.7155 -0.15652,0.2087 -0.34284,0.3875 -0.55897,0.5366 -0.21614,0.1416 -0.45836,0.2385 -0.72666,0.2906 l 1.95639,3.0632 -0.88317,0 -1.87814,-2.929 -2.34766,0 0,2.929 -0.77138,0 m 0.77138,-3.6221 2.60479,0 c 0.23104,0 0.43972,-0.048 0.62604,-0.1454 0.19377,-0.1043 0.35774,-0.2422 0.4919,-0.4136 0.13414,-0.1714 0.23848,-0.3652 0.31302,-0.5813 0.0745,-0.2161 0.11179,-0.4435 0.11179,-0.682 0,-0.2384 -0.0447,-0.4658 -0.13415,-0.6819 -0.082,-0.2236 -0.19751,-0.4174 -0.34656,-0.5813 -0.14161,-0.164 -0.31303,-0.2944 -0.51425,-0.3913 -0.19378,-0.097 -0.39874,-0.1453 -0.61487,-0.1453 l -2.53771,0 0,3.6221"
             style="font-variant:normal;font-stretch:normal;line-height:125%;font-family:Raleway;-inkscape-font-specification:Raleway;text-align:start;writing-mode:lr-tb;text-anchor:start;fill:#ffffff;stroke:none;stroke-width:0.08512882;stroke-miterlimit:4;stroke-dasharray:none;stroke-opacity:0.66666667"
             id="path9378"
             inkscape:connector-curvature="0" />
        </g>
        <g
           transform="matrix(0.99055242,-0.13713459,0.13713459,0.99055242,0,0)"
           style="font-style:normal;font-weight:normal;font-size:35.24000549px;line-height:125%;font-family:Sans;letter-spacing:0px;word-spacing:0px;fill:#585858;fill-opacity:1;stroke:#282828;stroke-width:0.08512882;stroke-miterlimit:4;stroke-dasharray:none;stroke-opacity:1"
           id="text9366">
          <path
             inkscape:connector-curvature="0"
             d="m -350.0286,1118.4169 c -2e-5,1.1982 -0.23495,2.3141 -0.7048,3.3478 -0.44639,1.0337 -1.06896,1.9382 -1.86772,2.7135 -0.77529,0.7752 -1.70328,1.3861 -2.78396,1.8324 -1.08071,0.4464 -2.23188,0.6696 -3.45352,0.6696 -1.29214,0 -2.4903,-0.2349 -3.59448,-0.7048 -1.0807,-0.4699 -2.02043,-1.1394 -2.8192,-2.0087 -0.77528,-0.8692 -1.38611,-1.9264 -1.83248,-3.1716 -0.44638,-1.2686 -0.66956,-2.7017 -0.66956,-4.2993 0,-2.6312 0.22318,-4.91 0.66956,-6.8365 0.44637,-1.9265 1.06894,-3.524 1.86772,-4.7927 0.79877,-1.2686 1.75025,-2.2083 2.85444,-2.8192 1.12767,-0.6108 2.36107,-0.9162 3.7002,-0.9162 1.69151,0 3.19508,0.4347 4.51072,1.3039 1.31561,0.8693 2.27884,2.0557 2.88968,3.5592 l -1.2334,0.9515 c -0.46988,-1.2686 -1.26865,-2.2906 -2.39632,-3.0659 -1.1042,-0.7752 -2.36109,-1.1629 -3.77068,-1.1629 -1.1042,0 -2.11441,0.2702 -3.03064,0.8105 -0.89275,0.5169 -1.65629,1.2922 -2.2906,2.3259 -0.63432,1.0102 -1.13943,2.2553 -1.51532,3.7354 -0.3524,1.4801 -0.5286,3.1716 -0.5286,5.0746 0.25842,-0.7518 0.63432,-1.4331 1.12768,-2.044 0.49335,-0.6343 1.05719,-1.1746 1.69152,-1.621 0.65781,-0.4464 1.37435,-0.787 2.14964,-1.022 0.77527,-0.2584 1.58579,-0.3876 2.43156,-0.3876 1.19815,0 2.31408,0.2232 3.3478,0.6696 1.05719,0.4464 1.97343,1.0572 2.74872,1.8324 0.77526,0.7753 1.38609,1.6798 1.83248,2.7135 0.44636,1.0337 0.66954,2.1379 0.66956,3.3126 m -8.73952,6.9775 c 0.96322,0 1.86771,-0.1762 2.71348,-0.5286 0.84575,-0.3759 1.58579,-0.881 2.22012,-1.5153 0.63431,-0.6343 1.13941,-1.3744 1.51532,-2.2201 0.37588,-0.8458 0.56382,-1.7503 0.56384,-2.7135 -2e-5,-0.9632 -0.18796,-1.8677 -0.56384,-2.7135 -0.37591,-0.8457 -0.88101,-1.5858 -1.51532,-2.2201 -0.63433,-0.6343 -1.38612,-1.1394 -2.25536,-1.5153 -0.84577,-0.3759 -1.75026,-0.5639 -2.71348,-0.5639 -0.96324,0 -1.87947,0.188 -2.74872,0.5639 -0.84577,0.3759 -1.58581,0.881 -2.22012,1.5153 -0.63433,0.6343 -1.13943,1.3744 -1.51532,2.2201 -0.3759,0.8458 -0.56384,1.7503 -0.56384,2.7135 0,0.9632 0.18794,1.8677 0.56384,2.7135 0.37589,0.8457 0.88099,1.5858 1.51532,2.2201 0.65781,0.6343 1.40959,1.1394 2.25536,1.5153 0.86925,0.3524 1.78548,0.5286 2.74872,0.5286"
             style="font-variant:normal;font-weight:300;font-stretch:normal;line-height:125%;font-family:Raleway;-inkscape-font-specification:'Raleway Light';text-align:start;writing-mode:lr-tb;text-anchor:start;fill:#585858;fill-opacity:1;stroke:#282828;stroke-width:0.08512882;stroke-miterlimit:4;stroke-dasharray:none;stroke-opacity:1"
             id="path9371" />
        </g>
        <path
           sodipodi:nodetypes="cc"
           inkscape:connector-curvature="0"
           id="path4236-5-6"
           d="m -171.93274,1170.4755 -8.07824,-49.3033"
           style="fill:none;fill-rule:evenodd;stroke:#ffffff;stroke-width:0.17025764;stroke-linecap:butt;stroke-linejoin:miter;stroke-miterlimit:4;stroke-dasharray:none;stroke-opacity:1" />
        <path
           sodipodi:nodetypes="cc"
           inkscape:connector-curvature="0"
           id="path4236-5-6-7"
           d="m -172.10072,1170.5011 -8.07824,-49.3033"
           style="fill:none;fill-rule:evenodd;stroke:#ffffff;stroke-width:0.17025764;stroke-linecap:butt;stroke-linejoin:miter;stroke-miterlimit:4;stroke-dasharray:none;stroke-opacity:0.66666667" />
        <path
           sodipodi:nodetypes="cc"
           inkscape:connector-curvature="0"
           id="path4236-5-6-7-3"
           d="m -172.22639,1170.5199 -8.07824,-49.3033"
           style="fill:none;fill-rule:evenodd;stroke:#ffffff;stroke-width:0.08512882;stroke-linecap:butt;stroke-linejoin:miter;stroke-miterlimit:4;stroke-dasharray:none;stroke-opacity:0.31372549" />
        <path
           sodipodi:nodetypes="cc"
           inkscape:connector-curvature="0"
           id="path4236-5-8-2"
           d="m -224.63749,1179.0358 -7.61033,-49.6086"
           style="fill:none;fill-rule:evenodd;stroke:#646464;stroke-width:0.17025764;stroke-linecap:butt;stroke-linejoin:miter;stroke-miterlimit:4;stroke-dasharray:none;stroke-opacity:1" />
        <path
           sodipodi:nodetypes="cc"
           inkscape:connector-curvature="0"
           id="path4236-5-8-25"
           d="m -224.7181,1179.4006 52.97341,-8.6035"
           style="fill:none;fill-rule:evenodd;stroke:#181818;stroke-width:0.34051529;stroke-linecap:butt;stroke-linejoin:miter;stroke-miterlimit:4;stroke-dasharray:none;stroke-opacity:1" />
        <path
           sodipodi:nodetypes="cc"
           inkscape:connector-curvature="0"
           id="path4236-5-8-25-1"
           d="m -224.66927,1179.7392 52.97341,-8.6035"
           style="fill:none;fill-rule:evenodd;stroke:#3f3a34;stroke-width:0.34051529;stroke-linecap:butt;stroke-linejoin:miter;stroke-miterlimit:4;stroke-dasharray:none;stroke-opacity:1" />
        <path
           sodipodi:nodetypes="cc"
           inkscape:connector-curvature="0"
           id="path4236-5-8-25-1-8"
           d="m -224.5621,1180.4345 52.97341,-8.6035"
           style="fill:none;fill-rule:evenodd;stroke:#3f3a34;stroke-width:0.34051529;stroke-linecap:butt;stroke-linejoin:miter;stroke-miterlimit:4;stroke-dasharray:none;stroke-opacity:1" />
        <path
           sodipodi:nodetypes="cc"
           inkscape:connector-curvature="0"
           id="path4236-5-8-25-1-0"
           d="m -224.51156,1180.767 52.97341,-8.6035"
           style="fill:none;fill-rule:evenodd;stroke:#3f3a34;stroke-width:0.34051529;stroke-linecap:butt;stroke-linejoin:miter;stroke-miterlimit:4;stroke-dasharray:none;stroke-opacity:1" />
      </g>
    </g>
  </g>
</svg>
