<?xml version="1.0" encoding="UTF-8" standalone="no"?>
<!-- Generator: Adobe Illustrator 18.1.1, SVG Export Plug-In . SVG Version: 6.00 Build 0)  -->

<svg
   xmlns:dc="http://purl.org/dc/elements/1.1/"
   xmlns:cc="http://creativecommons.org/ns#"
   xmlns:rdf="http://www.w3.org/1999/02/22-rdf-syntax-ns#"
   xmlns:svg="http://www.w3.org/2000/svg"
   xmlns="http://www.w3.org/2000/svg"
   xmlns:xlink="http://www.w3.org/1999/xlink"
   xmlns:sodipodi="http://sodipodi.sourceforge.net/DTD/sodipodi-0.dtd"
   xmlns:inkscape="http://www.inkscape.org/namespaces/inkscape"
   version="1.1"
   id="Template"
   x="0px"
   y="0px"
   viewBox="0 0 192 192"
   enable-background="new 0 0 128 128"
   xml:space="preserve"
   inkscape:version="0.91 r"
   sodipodi:docname="utilities-system-monitor.svg"
   width="16"
   height="16"><metadata
     id="metadata25"><rdf:RDF><cc:Work
         rdf:about=""><dc:format>image/svg+xml</dc:format><dc:type
           rdf:resource="http://purl.org/dc/dcmitype/StillImage" /></cc:Work></rdf:RDF></metadata><defs
     id="defs23"><linearGradient
       id="linearGradient3554"
       gradientUnits="userSpaceOnUse"
       x1="96"
       y1="23.5"
       x2="96"
       y2="168.5"><stop
         offset="0"
         style="stop-color:#D2E8EF"
         id="stop5-8" /><stop
         offset="1"
         style="stop-color:#757473"
         id="stop7-6" /></linearGradient><linearGradient
       id="linearGradient3558"
       gradientUnits="userSpaceOnUse"
       x1="96"
       y1="26"
       x2="96"
       y2="166"><stop
         offset="0"
         style="stop-color:#181818"
         id="stop11-4" /><stop
         offset="1"
         style="stop-color:#000000"
         id="stop13-7" /></linearGradient><linearGradient
       inkscape:collect="always"
       xlink:href="#linearGradient3554"
       id="linearGradient3574-0"
       gradientUnits="userSpaceOnUse"
       x1="96"
       y1="23.5"
       x2="96"
       y2="168.5" /><linearGradient
       inkscape:collect="always"
       xlink:href="#linearGradient3558"
       id="linearGradient3576-4"
       gradientUnits="userSpaceOnUse"
       x1="96"
       y1="26"
       x2="96"
       y2="166" /><clipPath
       clipPathUnits="userSpaceOnUse"
       id="clipPath4588"><rect
         ry="0.92730772"
         rx="0.92730772"
         y="969.28418"
         x="12.922019"
         height="70.15596"
         width="70.15596"
         id="rect4590"
         style="fill:url(#linearGradient4592);fill-opacity:1;stroke:none" /></clipPath><linearGradient
       inkscape:collect="always"
       xlink:href="#linearGradient5054"
       id="linearGradient5105"
       gradientUnits="userSpaceOnUse"
       x1="25.120642"
       y1="1007.5927"
       x2="15.373938"
       y2="1007.5927"
       gradientTransform="matrix(1.0745718,0,0,1.0745718,-3.3653599,-74.347035)" /><linearGradient
       inkscape:collect="always"
       id="linearGradient5054"><stop
         style="stop-color:#82f8e1;stop-opacity:1;"
         offset="0"
         id="stop5056" /><stop
         style="stop-color:#82f8e1;stop-opacity:0;"
         offset="1"
         id="stop5058" /></linearGradient><filter
       inkscape:collect="always"
       id="filter5101"
       x="-0.21428572"
       width="1.4285713"
       y="-0.21428572"
       height="1.4285713"><feGaussianBlur
         inkscape:collect="always"
         stdDeviation="0.39459084"
         id="feGaussianBlur5103" /></filter><filter
       inkscape:collect="always"
       id="filter4160"
       x="-0.099321522"
       width="1.198643"
       y="-0.15155292"
       height="1.3031058"><feGaussianBlur
         inkscape:collect="always"
         stdDeviation="3.1637847"
         id="feGaussianBlur4162" /></filter><linearGradient
       inkscape:collect="always"
       xlink:href="#linearGradient4313"
       id="linearGradient3396"
       gradientUnits="userSpaceOnUse"
       x1="78.54496"
       y1="1035.3286"
       x2="45.48772"
       y2="970.04541"
       gradientTransform="matrix(1.252785,0,0,1.252785,18.355674,-1168.9598)" /><linearGradient
       id="linearGradient4313"
       inkscape:collect="always"><stop
         id="stop4315"
         offset="0"
         style="stop-color:#0e1412;stop-opacity:1" /><stop
         style="stop-color:#172925;stop-opacity:1"
         offset="0.52557451"
         id="stop3358" /><stop
         style="stop-color:#223f39;stop-opacity:1"
         offset="0.55177301"
         id="stop3356" /><stop
         id="stop4317"
         offset="1"
         style="stop-color:#2b3936;stop-opacity:1" /></linearGradient><linearGradient
       inkscape:collect="always"
       xlink:href="#linearGradient5054"
       id="linearGradient3476"
       gradientUnits="userSpaceOnUse"
       gradientTransform="matrix(1.0745718,0,0,1.0745718,-3.3653599,-74.347035)"
       x1="25.120642"
       y1="1007.5927"
       x2="15.373938"
       y2="1007.5927" /></defs><sodipodi:namedview
     pagecolor="#ffffff"
     bordercolor="#666666"
     borderopacity="1"
     objecttolerance="10"
     gridtolerance="10"
     guidetolerance="10"
     inkscape:pageopacity="0"
     inkscape:pageshadow="2"
     inkscape:window-width="1301"
     inkscape:window-height="744"
     id="namedview21"
     showgrid="false"
     inkscape:zoom="16"
     inkscape:cx="-7.8037711"
     inkscape:cy="22.375462"
     inkscape:window-x="65"
     inkscape:window-y="24"
     inkscape:window-maximized="1"
     inkscape:current-layer="Keyline_Shapes-4-7" /><g
     inkscape:groupmode="layer"
     id="layer6"
     inkscape:label="SHADOW5" /><g
     inkscape:groupmode="layer"
     id="layer5"
     inkscape:label="SHADOW4" /><g
     inkscape:groupmode="layer"
     id="layer4"
     inkscape:label="SHADOW3" /><g
     inkscape:groupmode="layer"
     id="layer3"
     inkscape:label="SHADOW2" /><g
     inkscape:groupmode="layer"
     id="layer2"
     inkscape:label="SHADOW1" /><g
     inkscape:groupmode="layer"
     id="layer1"
     inkscape:label="BASE"><g
       id="g4673"
       transform="translate(-3.6102284e-7,-1.4999974)"><g
         id="Keyline_Shapes-4-7"
         transform="translate(-5.0286102e-4,-2.861023e-6)"><linearGradient
           y2="168.5"
           x2="96"
           y1="23.5"
           x1="96"
           gradientUnits="userSpaceOnUse"
           id="linearGradient3638"><stop
             id="stop3517-8"
             style="stop-color:#D2E8EF"
             offset="0" /><stop
             id="stop3519-8"
             style="stop-color:#757473"
             offset="1" /></linearGradient><linearGradient
           y2="166"
           x2="96"
           y1="26"
           x1="96"
           gradientUnits="userSpaceOnUse"
           id="linearGradient3643"><stop
             id="stop3524-5"
             style="stop-color:#181818"
             offset="0" /><stop
             id="stop3526-5"
             style="stop-color:#000000"
             offset="1" /></linearGradient><g
           id="g3461"
           transform="matrix(1.1636293,0,0,1.1636293,-15.708494,-15.953856)"><g
             transform="translate(-13.024209,15.234055)"
             id="Keyline_Shapes-4-0-7"><linearGradient
               id="linearGradient4632"
               gradientUnits="userSpaceOnUse"
               x1="96"
               y1="23.5"
               x2="96"
               y2="168.5"><stop
                 offset="0"
                 style="stop-color:#D2E8EF"
                 id="stop3517-7-2" /><stop
                 offset="1"
                 style="stop-color:#757473"
                 id="stop3519-4-9" /></linearGradient><path
               id="Outter-4-2-7"
               d="m 183.55521,156.26594 -149.062001,0 c -4.401,0 -7.969,-3.568 -7.969,-7.969 l 0,-129.06199 c 0,-4.401 3.568,-7.969 7.969,-7.969 l 149.063001,0 c 4.401,0 7.969,3.568 7.969,7.969 l 0,129.06299 c -10e-4,4.4 -3.569,7.968 -7.97,7.968 z"
               inkscape:connector-curvature="0"
               style="opacity:0.02000002;fill:#000000;fill-opacity:1" /><linearGradient
               id="linearGradient4637"
               gradientUnits="userSpaceOnUse"
               x1="96"
               y1="26"
               x2="96"
               y2="166"><stop
                 offset="0"
                 style="stop-color:#181818"
                 id="stop3524-6-9" /><stop
                 offset="1"
                 style="stop-color:#000000"
                 id="stop3526-2-3" /></linearGradient></g><g
             transform="translate(-13.024209,14.484055)"
             id="Keyline_Shapes-4-0-0"><linearGradient
               id="linearGradient4610"
               gradientUnits="userSpaceOnUse"
               x1="96"
               y1="23.5"
               x2="96"
               y2="168.5"><stop
                 offset="0"
                 style="stop-color:#D2E8EF"
                 id="stop3517-7-1" /><stop
                 offset="1"
                 style="stop-color:#757473"
                 id="stop3519-4-2" /></linearGradient><path
               id="Outter-4-2-4"
               d="m 183.55521,156.26594 -149.062001,0 c -4.401,0 -7.969,-3.568 -7.969,-7.969 l 0,-129.06199 c 0,-4.401 3.568,-7.969 7.969,-7.969 l 149.063001,0 c 4.401,0 7.969,3.568 7.969,7.969 l 0,129.06299 c -10e-4,4.4 -3.569,7.968 -7.97,7.968 z"
               inkscape:connector-curvature="0"
               style="opacity:0.05;fill:#000000;fill-opacity:1" /><linearGradient
               id="linearGradient4615"
               gradientUnits="userSpaceOnUse"
               x1="96"
               y1="26"
               x2="96"
               y2="166"><stop
                 offset="0"
                 style="stop-color:#181818"
                 id="stop3524-6-5" /><stop
                 offset="1"
                 style="stop-color:#000000"
                 id="stop3526-2-8" /></linearGradient></g><g
             transform="translate(-13.024209,13.734055)"
             id="Keyline_Shapes-4-0"><linearGradient
               id="linearGradient4556"
               gradientUnits="userSpaceOnUse"
               x1="96"
               y1="23.5"
               x2="96"
               y2="168.5"><stop
                 offset="0"
                 style="stop-color:#D2E8EF"
                 id="stop3517-7" /><stop
                 offset="1"
                 style="stop-color:#757473"
                 id="stop3519-4" /></linearGradient><path
               id="Outter-4-2"
               d="m 183.55521,156.26594 -149.062001,0 c -4.401,0 -7.969,-3.568 -7.969,-7.969 l 0,-129.06199 c 0,-4.401 3.568,-7.969 7.969,-7.969 l 149.063001,0 c 4.401,0 7.969,3.568 7.969,7.969 l 0,129.06299 c -10e-4,4.4 -3.569,7.968 -7.97,7.968 z"
               inkscape:connector-curvature="0"
               style="opacity:0.05;fill:#000000;fill-opacity:1" /><linearGradient
               id="linearGradient4561"
               gradientUnits="userSpaceOnUse"
               x1="96"
               y1="26"
               x2="96"
               y2="166"><stop
                 offset="0"
                 style="stop-color:#181818"
                 id="stop3524-6" /><stop
                 offset="1"
                 style="stop-color:#000000"
                 id="stop3526-2" /></linearGradient></g><g
             transform="translate(-13.024209,12.984055)"
             id="Keyline_Shapes-4"><linearGradient
               id="linearGradient3515"
               gradientUnits="userSpaceOnUse"
               x1="96"
               y1="23.5"
               x2="96"
               y2="168.5"><stop
                 offset="0"
                 style="stop-color:#D2E8EF"
                 id="stop3517" /><stop
                 offset="1"
                 style="stop-color:#757473"
                 id="stop3519" /></linearGradient><path
               id="Outter-4"
               d="m 183.55521,156.26594 -149.062001,0 c -4.401,0 -7.969,-3.568 -7.969,-7.969 l 0,-129.06199 c 0,-4.401 3.568,-7.969 7.969,-7.969 l 149.063001,0 c 4.401,0 7.969,3.568 7.969,7.969 l 0,129.06299 c -10e-4,4.4 -3.569,7.968 -7.97,7.968 z"
               inkscape:connector-curvature="0"
               style="opacity:0.1;fill:#000000;fill-opacity:1" /><linearGradient
               id="linearGradient3522"
               gradientUnits="userSpaceOnUse"
               x1="96"
               y1="26"
               x2="96"
               y2="166"><stop
                 offset="0"
                 style="stop-color:#181818"
                 id="stop3524" /><stop
                 offset="1"
                 style="stop-color:#000000"
                 id="stop3526" /></linearGradient></g><path
             id="Outter-4-3"
             d="m 170.531,168.5 -149.062,0 c -4.401,0 -7.969,-3.568 -7.969,-7.969 l 0,-129.062 c 0,-4.401 3.568,-7.969 7.969,-7.969 l 149.063,0 c 4.401,0 7.969,3.568 7.969,7.969 l 0,129.063 c -0.001,4.4 -3.569,7.968 -7.97,7.968 z"
             inkscape:connector-curvature="0"
             style="fill:url(#linearGradient3574-0)" /><path
             id="Inner-6-1"
             d="m 170,166 -148,0 c -3.314,0 -6,-2.686 -6,-6 L 16,32 c 0,-3.314 2.686,-6 6,-6 l 148,0 c 3.314,0 6,2.686 6,6 l 0,128 c 0,3.314 -2.686,6 -6,6 z"
             inkscape:connector-curvature="0"
             style="fill:url(#linearGradient3576-4)" /><rect
             id="Square_2_-3-6"
             x="26"
             y="36"
             width="140"
             height="120"
             style="fill:#010000;fill-opacity:1" /><g
             transform="matrix(1.3303645,0,0,1.1403161,-8.4189489,-5.8189638)"
             id="g4278"><rect
               style="opacity:0.75;fill:url(#linearGradient3396);fill-opacity:1;stroke:none"
               id="rect3394"
               width="105.23394"
               height="105.23394"
               x="25.872383"
               y="36.67313"
               rx="1.3909615"
               ry="1.3909615" /><g
               transform="matrix(1.5,0,0,1.5,6.4893548,-1417.2531)"
               id="g4558"
               clip-path="url(#clipPath4588)"><g
                 id="g5078"><rect
                   style="opacity:0.2;fill:#2b3936;fill-opacity:1;stroke:none"
                   id="rect3360"
                   width="77"
                   height="1.5"
                   x="9"
                   y="17.25"
                   transform="translate(0,956.36218)"
                   rx="0"
                   ry="0" /><rect
                   style="opacity:0.2;fill:#46e5cc;fill-opacity:1;stroke:none"
                   id="rect3364"
                   width="78"
                   height="1"
                   x="9"
                   y="1003.8622" /><rect
                   y="1013.8622"
                   x="9"
                   height="1"
                   width="78"
                   id="rect3366"
                   style="opacity:0.2;fill:#46e5cc;fill-opacity:1;stroke:none" /><rect
                   style="opacity:0.2;fill:#46e5cc;fill-opacity:1;stroke:none"
                   id="rect3368"
                   width="78"
                   height="1"
                   x="9"
                   y="1023.8622" /><rect
                   y="1033.8622"
                   x="9"
                   height="1"
                   width="78"
                   id="rect3370"
                   style="opacity:0.2;fill:#46e5cc;fill-opacity:1;stroke:none" /><rect
                   y="993.86218"
                   x="9"
                   height="1"
                   width="78"
                   id="rect3372"
                   style="opacity:0.2;fill:#46e5cc;fill-opacity:1;stroke:none" /><rect
                   style="opacity:0.2;fill:#46e5cc;fill-opacity:1;stroke:none"
                   id="rect3374"
                   width="78"
                   height="1"
                   x="9"
                   y="983.86218" /><rect
                   y="973.86218"
                   x="9"
                   height="1"
                   width="78"
                   id="rect3376"
                   style="opacity:0.2;fill:#46e5cc;fill-opacity:1;stroke:none" /><rect
                   y="-48.5"
                   x="965.36218"
                   height="1"
                   width="78"
                   id="rect3380"
                   style="opacity:0.2;fill:#46e5cc;fill-opacity:1;stroke:none"
                   transform="matrix(0,1,-1,0,0,0)" /><rect
                   style="opacity:0.2;fill:#46e5cc;fill-opacity:1;stroke:none"
                   id="rect3382"
                   width="78"
                   height="1"
                   x="965.36218"
                   y="-38.5"
                   transform="matrix(0,1,-1,0,0,0)" /><rect
                   y="-28.5"
                   x="965.36218"
                   height="1"
                   width="78"
                   id="rect3384"
                   style="opacity:0.2;fill:#46e5cc;fill-opacity:1;stroke:none"
                   transform="matrix(0,1,-1,0,0,0)" /><rect
                   style="opacity:0.2;fill:#46e5cc;fill-opacity:1;stroke:none"
                   id="rect3386"
                   width="78"
                   height="1"
                   x="965.36218"
                   y="-18.5"
                   transform="matrix(0,1,-1,0,0,0)" /><rect
                   style="opacity:0.2;fill:#46e5cc;fill-opacity:1;stroke:none"
                   id="rect3388"
                   width="78"
                   height="1"
                   x="965.36218"
                   y="-58.5"
                   transform="matrix(0,1,-1,0,0,0)" /><rect
                   y="-68.5"
                   x="965.36218"
                   height="1"
                   width="78"
                   id="rect3390"
                   style="opacity:0.2;fill:#46e5cc;fill-opacity:1;stroke:none"
                   transform="matrix(0,1,-1,0,0,0)" /><rect
                   style="opacity:0.2;fill:#46e5cc;fill-opacity:1;stroke:none"
                   id="rect3392"
                   width="78"
                   height="1"
                   x="965.36218"
                   y="-78.5"
                   transform="matrix(0,1,-1,0,0,0)" /></g><path
                 sodipodi:nodetypes="ccccccccccc"
                 inkscape:connector-curvature="0"
                 id="path3408"
                 d="m 6.9043608,1009.0078 16.3245742,0 c 2.562663,-4.4387 4.597681,-4.5918 7.248727,0 l 7.662313,0 1.880502,5.5072 3.223714,-42.57996 3.62668,50.10186 3.358038,-13.0291 8.193609,0 c 2.912179,-10.86844 11.588119,-10.89239 14.506719,0 l 10.424653,0"
                 style="fill:none;stroke:url(#linearGradient3476);stroke-width:2.1491437;stroke-linecap:round;stroke-linejoin:round;stroke-miterlimit:4;stroke-dasharray:none;stroke-opacity:1;marker-end:none" /><circle
                 r="2.2097087"
                 cy="51.894215"
                 cx="80.698563"
                 style="fill:#76fbe2;fill-opacity:1;stroke:none;filter:url(#filter5101)"
                 id="path5095"
                 transform="matrix(1.0745718,0,0,1.0745718,-3.2703804,953.33279)" /><path
                 style="fill:none;stroke:url(#linearGradient5105);stroke-width:2.1491437;stroke-linecap:round;stroke-linejoin:round;stroke-miterlimit:4;stroke-dasharray:none;stroke-opacity:1;marker-end:none;filter:url(#filter4160)"
                 d="m 6.9043608,1009.0078 16.3245742,0 c 2.562663,-4.4387 4.597681,-4.5918 7.248727,0 l 7.662313,0 1.880502,5.5072 3.223714,-42.57996 3.62668,50.10186 3.358038,-13.0291 8.193609,0 c 2.912179,-10.86844 11.588119,-10.89239 14.506719,0 l 10.424653,0"
                 id="path4158"
                 inkscape:connector-curvature="0"
                 sodipodi:nodetypes="ccccccccccc" /><circle
                 r="2.2097087"
                 cy="51.894215"
                 cx="80.698563"
                 transform="matrix(1.0745718,0,0,1.0745718,-3.2703804,953.33279)"
                 id="path5076"
                 style="fill:#76fbe2;fill-opacity:1;stroke:none" /></g></g></g></g></g></g></svg>