<?xml version="1.0" encoding="UTF-8" standalone="no"?>
<!-- Created with Inkscape (http://www.inkscape.org/) -->

<svg
   xmlns:osb="http://www.openswatchbook.org/uri/2009/osb"
   xmlns:dc="http://purl.org/dc/elements/1.1/"
   xmlns:cc="http://creativecommons.org/ns#"
   xmlns:rdf="http://www.w3.org/1999/02/22-rdf-syntax-ns#"
   xmlns:svg="http://www.w3.org/2000/svg"
   xmlns="http://www.w3.org/2000/svg"
   xmlns:xlink="http://www.w3.org/1999/xlink"
   xmlns:sodipodi="http://sodipodi.sourceforge.net/DTD/sodipodi-0.dtd"
   xmlns:inkscape="http://www.inkscape.org/namespaces/inkscape"
   width="128"
   height="128"
   id="svg3145"
   version="1.1"
   inkscape:version="0.91 r"
   sodipodi:docname="circle_with_border.svg">
  <defs
     id="defs3147">
    <linearGradient
       inkscape:collect="always"
       id="linearGradient4408">
      <stop
         style="stop-color:#000000;stop-opacity:1"
         offset="0"
         id="stop4410" />
      <stop
         id="stop4416"
         offset="0.5"
         style="stop-color:#000000;stop-opacity:0.71069181" />
      <stop
         style="stop-color:#000000;stop-opacity:0.33333334"
         offset="1"
         id="stop4412" />
    </linearGradient>
    <linearGradient
       id="linearGradient4182"
       osb:paint="solid">
      <stop
         style="stop-color:#000000;stop-opacity:1;"
         offset="0"
         id="stop4184" />
    </linearGradient>
    <linearGradient
       inkscape:collect="always"
       id="linearGradient4164">
      <stop
         style="stop-color:#d34e04;stop-opacity:1"
         offset="0"
         id="stop4166" />
      <stop
         id="stop4172"
         offset="0.5"
         style="stop-color:#ee7e0e;stop-opacity:1" />
      <stop
         style="stop-color:#ffc424;stop-opacity:1"
         offset="1"
         id="stop4168" />
    </linearGradient>
    <linearGradient
       id="linearGradient3779">
      <stop
         style="stop-color:#ffffff;stop-opacity:1"
         offset="0"
         id="stop3781" />
      <stop
         style="stop-color:#cacaca;stop-opacity:1"
         offset="1"
         id="stop3783" />
    </linearGradient>
    <linearGradient
       id="linearGradient4433">
      <stop
         style="stop-color:#5c6470;stop-opacity:1;"
         offset="0"
         id="stop4435" />
      <stop
         style="stop-color:#abc2c2;stop-opacity:1;"
         offset="1"
         id="stop4437" />
    </linearGradient>
    <linearGradient
       inkscape:collect="always"
       xlink:href="#linearGradient4433"
       id="linearGradient4170"
       x1="47.512257"
       y1="84.655106"
       x2="47.512257"
       y2="10.487744"
       gradientUnits="userSpaceOnUse"
       gradientTransform="matrix(1.3872832,0,0,1.3872832,-2.5895936,-2.9364144)" />
    <linearGradient
       inkscape:collect="always"
       xlink:href="#linearGradient4164"
       id="linearGradient4310"
       gradientUnits="userSpaceOnUse"
       x1="47.512257"
       y1="84.655106"
       x2="47.512257"
       y2="10.487744" />
    <linearGradient
       inkscape:collect="always"
       xlink:href="#linearGradient4408"
       id="linearGradient4414"
       x1="33.233509"
       y1="85.375641"
       x2="33.674099"
       y2="9.8162336"
       gradientUnits="userSpaceOnUse"
       gradientTransform="matrix(1.3872832,0,0,1.3872832,-2.5895936,-2.9364144)" />
    <linearGradient
       gradientTransform="matrix(1.4943081,0,0,1.4866056,-7.5493021,-11.184194)"
       inkscape:collect="always"
       xlink:href="#linearGradient3779"
       id="linearGradient4162"
       x1="48.411732"
       y1="11.413816"
       x2="47.881229"
       y2="87.935265"
       gradientUnits="userSpaceOnUse" />
  </defs>
  <sodipodi:namedview
     id="base"
     pagecolor="#ffffff"
     bordercolor="#666666"
     borderopacity="1.0"
     inkscape:pageopacity="0.0"
     inkscape:pageshadow="2"
     inkscape:zoom="2.4748737"
     inkscape:cx="7.0769146"
     inkscape:cy="74.697116"
     inkscape:current-layer="layer8"
     showgrid="false"
     inkscape:grid-bbox="true"
     inkscape:document-units="px"
     inkscape:snap-global="true"
     showguides="true"
     inkscape:window-width="1301"
     inkscape:window-height="744"
     inkscape:window-x="65"
     inkscape:window-y="24"
     inkscape:window-maximized="1">
    <inkscape:grid
       type="xygrid"
       id="grid4441" />
  </sodipodi:namedview>
  <metadata
     id="metadata3150">
    <rdf:RDF>
      <cc:Work
         rdf:about="">
        <dc:format>image/svg+xml</dc:format>
        <dc:type
           rdf:resource="http://purl.org/dc/dcmitype/StillImage" />
        <dc:title />
      </cc:Work>
    </rdf:RDF>
  </metadata>
  <g
     inkscape:groupmode="layer"
     id="layer7"
     inkscape:label="SOMBRA-503"
     style="display:inline" />
  <g
     inkscape:groupmode="layer"
     id="layer6"
     inkscape:label="SOMBRA-502"
     style="display:inline" />
  <g
     inkscape:groupmode="layer"
     id="layer5"
     inkscape:label="SOMBRA-501"
     style="display:inline" />
  <g
     inkscape:groupmode="layer"
     id="layer4"
     inkscape:label="SOMBRA-102"
     style="display:inline" />
  <g
     inkscape:groupmode="layer"
     id="layer3"
     inkscape:label="SOMBRA-101"
     style="display:inline" />
  <g
     inkscape:groupmode="layer"
     id="layer2"
     inkscape:label="SOMBRA-BASE"
     style="display:inline" />
  <g
     inkscape:groupmode="layer"
     id="layer10"
     inkscape:label="BASE2"
     style="display:inline" />
  <g
     id="layer1"
     inkscape:label="BASE"
     inkscape:groupmode="layer"
     style="display:inline" />
  <g
     inkscape:groupmode="layer"
     id="layer9"
     inkscape:label="BORDER"
     style="display:inline">
    <path
       style="display:inline;opacity:1;fill:url(#linearGradient4310);fill-opacity:1;stroke:none;stroke-width:1;stroke-linecap:butt;stroke-linejoin:miter;stroke-miterlimit:4;stroke-dasharray:none;stroke-dashoffset:0;stroke-opacity:0.29559751"
       id="path4431-0"
       r="38"
       cy="48"
       cx="48"
       d=""
       inkscape:connector-curvature="0" />
  </g>
  <g
     inkscape:groupmode="layer"
     id="layer8"
     inkscape:label="SIMBOL"
     style="display:inline">
    <circle
       style="display:inline;opacity:0.05;fill:#000000;fill-opacity:1;stroke-width:1.11300004;stroke-miterlimit:4;stroke-dasharray:none"
       id="path4505"
       cx="64"
       cy="64"
       r="60" />
    <circle
       style="display:inline;opacity:0.05;fill:#000000;fill-opacity:1;stroke-width:1.11300004;stroke-miterlimit:4;stroke-dasharray:none"
       id="path4502"
       cx="64.000008"
       cy="64.346817"
       r="59.653179" />
    <circle
       style="display:inline;opacity:0.05;fill:#000000;fill-opacity:1;stroke-width:1.11300004;stroke-miterlimit:4;stroke-dasharray:none"
       id="path4499"
       cx="63.999996"
       cy="64.693642"
       r="59.306358" />
    <circle
       style="display:inline;opacity:0.1;fill:#000000;fill-opacity:1;stroke-width:1.11300004;stroke-miterlimit:4;stroke-dasharray:none"
       id="path4496"
       cx="64"
       cy="64.346817"
       r="58.959538" />
    <circle
       style="display:inline;opacity:0.1;fill:#000000;fill-opacity:1;stroke-width:1.11300004;stroke-miterlimit:4;stroke-dasharray:none"
       id="path4491"
       cx="64"
       cy="64"
       r="58.612717" />
    <circle
       r="58.265896"
       cy="63.653179"
       cx="64"
       style="display:inline;fill:url(#linearGradient4162);fill-opacity:1;stroke-width:1.11300004;stroke-miterlimit:4;stroke-dasharray:none"
       id="path3153" />
    <circle
       style="display:inline;opacity:1;fill:url(#linearGradient4170);fill-opacity:1;stroke:none;stroke-width:1;stroke-linecap:butt;stroke-linejoin:miter;stroke-miterlimit:4;stroke-dasharray:none;stroke-dashoffset:0;stroke-opacity:0.29559751"
       id="path4431"
       r="52.716763"
       cy="63.653179"
       cx="64" />
    <circle
       style="display:inline;opacity:1;fill:none;fill-opacity:1;stroke:url(#linearGradient4414);stroke-width:1.36926651;stroke-linecap:butt;stroke-linejoin:miter;stroke-miterlimit:4;stroke-dasharray:none;stroke-dashoffset:0;stroke-opacity:0.12578616"
       id="path4431-1"
       r="52.032127"
       cy="63.653179"
       cx="64" />
    <g
       id="g4221">
      <g
         transform="matrix(1.3872832,0,0,1.3872832,-24.119445,11.541621)"
         id="g4438">
        <g
           id="text4642"
           style="font-style:normal;font-variant:normal;font-weight:normal;font-stretch:normal;font-size:66.89640808px;line-height:125%;font-family:'Open Sans';-inkscape-font-specification:'Open Sans';letter-spacing:0px;word-spacing:0px;opacity:0.05;fill:#000000;fill-opacity:1;stroke:none"
           transform="matrix(0.7494642,0,0,0.69329624,28.919432,-687.65764)">
          <path
             id="path4258"
             style="font-style:normal;font-variant:normal;font-weight:normal;font-stretch:normal;font-family:'Open Sans';-inkscape-font-specification:'Open Sans';text-align:center;text-anchor:middle;fill:#000000"
             d="m 72.281396,1045.4083 q 0,4.6384 -1.437228,8.4927 -1.437227,3.8544 -4.050368,5.9776 -2.613141,2.1232 -6.010224,2.1232 -2.809127,0 -4.736318,-1.6986 -1.927192,-1.6985 -2.286499,-4.3443 l -0.261314,0 q -1.30657,2.8418 -3.75639,4.4423 -2.417155,1.6006 -5.74891,1.6006 -4.899639,0 -7.676102,-3.3318 -2.743798,-3.3644 -2.743798,-9.1133 0,-6.6635 3.854383,-10.8119 3.854383,-4.181 10.125922,-4.181 2.221169,0 5.030296,0.4246 2.809126,0.392 5.06296,1.1106 l -0.816606,15.3522 0,0.7186 q 0,5.8143 4.344347,5.8143 2.972447,0 4.83431,-3.4951 1.861863,-3.5277 1.861863,-9.146 0,-5.9122 -2.417155,-10.3546 -2.417155,-4.4423 -6.892159,-6.8268 -4.44234,-2.4172 -10.223914,-2.4172 -7.284131,0 -12.673734,3.0378 -5.389603,3.0051 -8.231394,8.6234 -2.84179,5.5856 -2.84179,12.935 0,9.9626 5.258946,15.3196 5.258946,5.3569 15.156217,5.3569 6.859495,0 14.241618,-2.8091 l 0,4.3443 q -6.271538,2.7438 -14.241618,2.7438 -11.857127,0 -18.422644,-6.5002 -6.532852,-6.5328 -6.532852,-18.2266 0,-8.4927 3.495076,-15.1236 3.495076,-6.6308 9.9626,-10.2565 6.467524,-3.6584 14.829575,-3.6584 7.022816,0 12.477748,2.9724 5.487596,2.9398 8.460044,8.3947 3.005112,5.4223 3.005112,12.5104 z m -33.774847,4.2791 q 0,8.2967 6.369531,8.2967 6.761502,0 7.349459,-10.2239 l 0.4573,-8.5254 q -2.351827,-0.6533 -5.128289,-0.6533 -4.246355,0 -6.66351,2.9398 -2.384491,2.9398 -2.384491,8.1661 z"
             inkscape:connector-curvature="0" />
        </g>
        <g
           id="text4646"
           style="font-style:normal;font-variant:normal;font-weight:normal;font-stretch:normal;font-size:66.89640808px;line-height:125%;font-family:'Open Sans';-inkscape-font-specification:'Open Sans';letter-spacing:0px;word-spacing:0px;opacity:0.05;fill:#000000;fill-opacity:1;stroke:none"
           transform="matrix(0.7494642,0,0,0.69329624,28.919432,-687.65764)">
          <path
             id="path4261"
             style="font-style:normal;font-variant:normal;font-weight:normal;font-stretch:normal;font-family:'Open Sans';-inkscape-font-specification:'Open Sans';text-align:center;text-anchor:middle;fill:#000000"
             d="m 72.281396,1044.5186 q 0,4.6383 -1.437228,8.4927 -1.437227,3.8544 -4.050368,5.9775 -2.613141,2.1232 -6.010224,2.1232 -2.809127,0 -4.736318,-1.6985 -1.927192,-1.6986 -2.286499,-4.3444 l -0.261314,0 q -1.30657,2.8418 -3.75639,4.4424 -2.417155,1.6005 -5.74891,1.6005 -4.899639,0 -7.676102,-3.3317 -2.743798,-3.3645 -2.743798,-9.1134 0,-6.6635 3.854383,-10.8118 3.854383,-4.1811 10.125922,-4.1811 2.221169,0 5.030296,0.4247 2.809126,0.3919 5.06296,1.1105 l -0.816606,15.3523 0,0.7186 q 0,5.8142 4.344347,5.8142 2.972447,0 4.83431,-3.4951 1.861863,-3.5277 1.861863,-9.146 0,-5.9122 -2.417155,-10.3545 -2.417155,-4.4424 -6.892159,-6.8269 -4.44234,-2.4171 -10.223914,-2.4171 -7.284131,0 -12.673734,3.0378 -5.389603,3.0051 -8.231394,8.6233 -2.84179,5.5856 -2.84179,12.9351 0,9.9626 5.258946,15.3195 5.258946,5.3569 15.156217,5.3569 6.859495,0 14.241618,-2.8091 l 0,4.3444 q -6.271538,2.7438 -14.241618,2.7438 -11.857127,0 -18.422644,-6.5002 -6.532852,-6.5329 -6.532852,-18.2267 0,-8.4927 3.495076,-15.1235 3.495076,-6.6309 9.9626,-10.2566 6.467524,-3.6584 14.829575,-3.6584 7.022816,0 12.477748,2.9724 5.487596,2.9398 8.460044,8.3948 3.005112,5.4222 3.005112,12.5104 z m -33.774847,4.279 q 0,8.2967 6.369531,8.2967 6.761502,0 7.349459,-10.2239 l 0.4573,-8.5254 q -2.351827,-0.6533 -5.128289,-0.6533 -4.246355,0 -6.66351,2.9398 -2.384491,2.9398 -2.384491,8.1661 z"
             inkscape:connector-curvature="0" />
        </g>
        <g
           id="text3810"
           style="font-style:normal;font-variant:normal;font-weight:normal;font-stretch:normal;font-size:64.68240356px;line-height:125%;font-family:'Open Sans';-inkscape-font-specification:'Open Sans';letter-spacing:0px;word-spacing:0px;opacity:0.05;fill:#000000;fill-opacity:1;stroke:none"
           transform="matrix(0.77511751,0,0,0.71702697,27.735115,-712.48792)">
          <path
             id="path4252"
             style="font-style:normal;font-variant:normal;font-weight:normal;font-stretch:normal;font-family:'Open Sans';-inkscape-font-specification:'Open Sans';text-align:center;text-anchor:middle;fill:#000000"
             d="m 71.417088,1043.4284 q 0,4.4848 -1.389661,8.2116 -1.389661,3.7268 -3.916317,5.7797 -2.526657,2.0529 -5.81131,2.0529 -2.716156,0 -4.579565,-1.6423 -1.863409,-1.6423 -2.210824,-4.2006 l -0.252666,0 q -1.263328,2.7478 -3.632068,4.2953 -2.337157,1.5476 -5.558644,1.5476 -4.737481,0 -7.422054,-3.2215 -2.652989,-3.253 -2.652989,-8.8117 0,-6.4429 3.726818,-10.454 3.726819,-4.0427 9.790794,-4.0427 2.147658,0 4.863813,0.4106 2.716156,0.379 4.895397,1.0738 l -0.78958,14.8442 0,0.6948 q 0,5.6218 4.200566,5.6218 2.874072,0 4.674315,-3.3794 1.800242,-3.411 1.800242,-8.8433 0,-5.7166 -2.337157,-10.0119 -2.337157,-4.2953 -6.664056,-6.6009 -4.295316,-2.3371 -9.885543,-2.3371 -7.043055,0 -12.254284,2.9372 -5.211228,2.9057 -7.958967,8.338 -2.747739,5.4007 -2.747739,12.5069 0,9.6329 5.084896,14.8125 5.084896,5.1797 14.654607,5.1797 6.632473,0 13.770277,-2.7162 l 0,4.2006 q -6.063975,2.653 -13.770277,2.653 -11.464703,0 -17.812928,-6.2851 -6.316641,-6.3166 -6.316641,-17.6234 0,-8.2116 3.379403,-14.623 3.379403,-6.4114 9.632878,-9.9171 6.253474,-3.5374 14.338775,-3.5374 6.790389,0 12.064784,2.8741 5.305979,2.8425 8.18005,8.1169 2.905655,5.2428 2.905655,12.0964 z m -32.657034,4.1374 q 0,8.0221 6.158725,8.0221 6.537724,0 7.106221,-9.8856 l 0.442165,-8.2432 q -2.273991,-0.6316 -4.958563,-0.6316 -4.105817,0 -6.442974,2.8425 -2.305574,2.8424 -2.305574,7.8958 z"
             inkscape:connector-curvature="0" />
        </g>
        <g
           id="text4638"
           style="font-style:normal;font-variant:normal;font-weight:normal;font-stretch:normal;font-size:66.89640808px;line-height:125%;font-family:'Open Sans';-inkscape-font-specification:'Open Sans';letter-spacing:0px;word-spacing:0px;opacity:0.05;fill:#000000;fill-opacity:1;stroke:none"
           transform="matrix(0.7494642,0,0,0.69329624,28.919432,-687.65764)">
          <path
             id="path4255"
             style="font-style:normal;font-variant:normal;font-weight:normal;font-stretch:normal;font-family:'Open Sans';-inkscape-font-specification:'Open Sans';text-align:center;text-anchor:middle;fill:#000000"
             d="m 72.281396,1042.4392 q 0,4.6383 -1.437228,8.4927 -1.437227,3.8544 -4.050368,5.9776 -2.613141,2.1232 -6.010224,2.1232 -2.809127,0 -4.736318,-1.6986 -1.927192,-1.6985 -2.286499,-4.3443 l -0.261314,0 q -1.30657,2.8418 -3.75639,4.4423 -2.417155,1.6006 -5.74891,1.6006 -4.899639,0 -7.676102,-3.3318 -2.743798,-3.3644 -2.743798,-9.1133 0,-6.6635 3.854383,-10.8119 3.854383,-4.181 10.125922,-4.181 2.221169,0 5.030296,0.4246 2.809126,0.392 5.06296,1.1106 l -0.816606,15.3522 0,0.7186 q 0,5.8143 4.344347,5.8143 2.972447,0 4.83431,-3.4951 1.861863,-3.5278 1.861863,-9.146 0,-5.9122 -2.417155,-10.3546 -2.417155,-4.4423 -6.892159,-6.8268 -4.44234,-2.4172 -10.223914,-2.4172 -7.284131,0 -12.673734,3.0378 -5.389603,3.0051 -8.231394,8.6234 -2.84179,5.5856 -2.84179,12.935 0,9.9626 5.258946,15.3196 5.258946,5.3569 15.156217,5.3569 6.859495,0 14.241618,-2.8091 l 0,4.3443 q -6.271538,2.7438 -14.241618,2.7438 -11.857127,0 -18.422644,-6.5002 -6.532852,-6.5328 -6.532852,-18.2266 0,-8.4927 3.495076,-15.1236 3.495076,-6.6308 9.9626,-10.2566 6.467524,-3.6584 14.829575,-3.6584 7.022816,0 12.477748,2.9725 5.487596,2.9398 8.460044,8.3947 3.005112,5.4223 3.005112,12.5104 z m -33.774847,4.279 q 0,8.2968 6.369531,8.2968 6.761502,0 7.349459,-10.224 l 0.4573,-8.5253 q -2.351827,-0.6533 -5.128289,-0.6533 -4.246355,0 -6.66351,2.9398 -2.384491,2.9398 -2.384491,8.166 z"
             inkscape:connector-curvature="0" />
        </g>
        <g
           id="text4634"
           style="font-style:normal;font-variant:normal;font-weight:normal;font-stretch:normal;font-size:66.89640808px;line-height:125%;font-family:'Open Sans';-inkscape-font-specification:'Open Sans';letter-spacing:0px;word-spacing:0px;opacity:0.1;fill:#000000;fill-opacity:1;stroke:none"
           transform="matrix(0.7494642,0,0,0.69329624,28.919432,-687.65764)">
          <path
             id="path4249"
             style="font-style:normal;font-variant:normal;font-weight:normal;font-stretch:normal;font-family:'Open Sans';-inkscape-font-specification:'Open Sans';text-align:center;text-anchor:middle;fill:#000000"
             d="m 72.281396,1041.3994 q 0,4.6383 -1.437228,8.4927 -1.437227,3.8544 -4.050368,5.9776 -2.613141,2.1232 -6.010224,2.1232 -2.809127,0 -4.736318,-1.6986 -1.927192,-1.6985 -2.286499,-4.3443 l -0.261314,0 q -1.30657,2.8418 -3.75639,4.4423 -2.417155,1.6006 -5.74891,1.6006 -4.899639,0 -7.676102,-3.3318 -2.743798,-3.3644 -2.743798,-9.1133 0,-6.6635 3.854383,-10.8119 3.854383,-4.181 10.125922,-4.181 2.221169,0 5.030296,0.4246 2.809126,0.392 5.06296,1.1106 l -0.816606,15.3522 0,0.7186 q 0,5.8143 4.344347,5.8143 2.972447,0 4.83431,-3.4951 1.861863,-3.5278 1.861863,-9.146 0,-5.9122 -2.417155,-10.3546 -2.417155,-4.4423 -6.892159,-6.8268 -4.44234,-2.4172 -10.223914,-2.4172 -7.284131,0 -12.673734,3.0378 -5.389603,3.0051 -8.231394,8.6234 -2.84179,5.5856 -2.84179,12.935 0,9.9626 5.258946,15.3196 5.258946,5.3569 15.156217,5.3569 6.859495,0 14.241618,-2.8091 l 0,4.3443 q -6.271538,2.7438 -14.241618,2.7438 -11.857127,0 -18.422644,-6.5002 -6.532852,-6.5328 -6.532852,-18.2266 0,-8.4927 3.495076,-15.1236 3.495076,-6.6308 9.9626,-10.2566 6.467524,-3.6584 14.829575,-3.6584 7.022816,0 12.477748,2.9725 5.487596,2.9398 8.460044,8.3947 3.005112,5.4223 3.005112,12.5104 z m -33.774847,4.279 q 0,8.2968 6.369531,8.2968 6.761502,0 7.349459,-10.224 l 0.4573,-8.5253 q -2.351827,-0.6533 -5.128289,-0.6533 -4.246355,0 -6.66351,2.9398 -2.384491,2.9398 -2.384491,8.166 z"
             inkscape:connector-curvature="0" />
        </g>
        <g
           id="text3094"
           style="font-style:normal;font-variant:normal;font-weight:normal;font-stretch:normal;font-size:64.68240356px;line-height:125%;font-family:'Open Sans';-inkscape-font-specification:'Open Sans';letter-spacing:0px;word-spacing:0px;fill:#ffffff;fill-opacity:1;stroke:none"
           transform="matrix(0.7494642,0,0,0.69329625,28.919432,-687.65764)">
          <path
             id="path4246"
             style="font-style:normal;font-variant:normal;font-weight:normal;font-stretch:normal;font-family:'Open Sans';-inkscape-font-specification:'Open Sans';text-align:center;text-anchor:middle;fill:#ffffff"
             d="m 71.417088,1041.3489 q 0,4.4848 -1.389661,8.2116 -1.389661,3.7268 -3.916317,5.7798 -2.526657,2.0529 -5.81131,2.0529 -2.716156,0 -4.579565,-1.6424 -1.863409,-1.6423 -2.210824,-4.2005 l -0.252666,0 q -1.263328,2.7477 -3.632068,4.2953 -2.337157,1.5476 -5.558644,1.5476 -4.737481,0 -7.422054,-3.2215 -2.652989,-3.2531 -2.652989,-8.8117 0,-6.443 3.726818,-10.4541 3.726819,-4.0426 9.790794,-4.0426 2.147658,0 4.863813,0.4105 2.716156,0.379 4.895397,1.0739 l -0.78958,14.8441 0,0.6948 q 0,5.6218 4.200566,5.6218 2.874072,0 4.674315,-3.3794 1.800242,-3.411 1.800242,-8.8433 0,-5.7165 -2.337157,-10.0119 -2.337157,-4.2953 -6.664056,-6.6008 -4.295316,-2.3372 -9.885543,-2.3372 -7.043055,0 -12.254284,2.9372 -5.211228,2.9057 -7.958967,8.338 -2.747739,5.4007 -2.747739,12.507 0,9.6328 5.084896,14.8125 5.084896,5.1796 14.654607,5.1796 6.632473,0 13.770277,-2.7161 l 0,4.2005 q -6.063975,2.653 -13.770277,2.653 -11.464703,0 -17.812928,-6.285 -6.316641,-6.3167 -6.316641,-17.6235 0,-8.2116 3.379403,-14.623 3.379403,-6.4114 9.632878,-9.9171 6.253474,-3.5373 14.338775,-3.5373 6.790389,0 12.064784,2.874 5.305979,2.8425 8.18005,8.1169 2.905655,5.2428 2.905655,12.0964 z m -32.657034,4.1374 q 0,8.0221 6.158725,8.0221 6.537724,0 7.106221,-9.8855 l 0.442165,-8.2432 q -2.273991,-0.6317 -4.958563,-0.6317 -4.105817,0 -6.442974,2.8425 -2.305574,2.8425 -2.305574,7.8958 z"
             inkscape:connector-curvature="0" />
        </g>
      </g>
    </g>
  </g>
</svg>
